<?xml version="1.0" encoding="UTF-8" standalone="no"?>
<!-- Created with Inkscape (http://www.inkscape.org/) -->

<svg
   width="30.022184mm"
   height="22.067636mm"
   viewBox="0 0 30.022184 22.067636"
   version="1.1"
   id="svg5"
   inkscape:version="1.1.2 (b8e25be833, 2022-02-05)"
   sodipodi:docname="LogoIWA.svg"
   xmlns:inkscape="http://www.inkscape.org/namespaces/inkscape"
   xmlns:sodipodi="http://sodipodi.sourceforge.net/DTD/sodipodi-0.dtd"
   xmlns="http://www.w3.org/2000/svg"
   xmlns:svg="http://www.w3.org/2000/svg">
  <sodipodi:namedview
     id="namedview7"
     pagecolor="#ffffff"
     bordercolor="#666666"
     borderopacity="1.0"
     inkscape:pageshadow="2"
     inkscape:pageopacity="0.0"
     inkscape:pagecheckerboard="0"
     inkscape:document-units="mm"
     showgrid="false"
     inkscape:zoom="5.6568543"
     inkscape:cx="71.948115"
     inkscape:cy="65.937707"
     inkscape:window-width="1371"
     inkscape:window-height="991"
     inkscape:window-x="387"
     inkscape:window-y="18"
     inkscape:window-maximized="0"
     inkscape:current-layer="layer1"
     fit-margin-top="0"
     fit-margin-left="0"
     fit-margin-right="0"
     fit-margin-bottom="0" />
  <defs
     id="defs2">
    <clipPath
       clipPathUnits="userSpaceOnUse"
       id="clipPath172190">
      <path
         id="path172192"
         style="fill:#ff0000;fill-opacity:1;fill-rule:nonzero;stroke:none"
         d="m 42.480469,404.69727 v 82.14258 H 162.46875 v -82.14258 z m 63.347651,55.00782 0.002,0.004 0.002,0.002 0.002,0.01 0.002,0.01 0.002,0.01 v 0.009 l 0.002,0.01 0.002,0.006 0.002,0.008 0.002,0.006 0.002,0.008 0.002,0.01 0.002,0.0117 0.002,0.0117 0.002,0.01 0.002,0.01 0.002,0.01 0.002,0.0117 0.002,0.01 0.002,0.0117 0.002,0.01 0.002,0.0117 0.006,0.0117 0.01,0.0117 0.004,0.0117 0.004,0.0117 0.01,0.0117 0.004,0.01 0.008,0.0117 0.004,0.0117 0.004,0.01 0.004,0.0117 0.004,0.0117 0.008,0.0117 0.004,0.0117 0.004,0.0117 0.004,0.004 0.0117,0.0117 0.0117,0.002 c 0.008,3.2e-4 0.015,0.007 0.0215,0.0195 6.9e-4,10e-4 0.006,0.007 0.008,0.008 0.003,2e-5 0.009,2.8e-4 0.0117,0 0.003,-3.6e-4 0.011,-7e-4 0.0117,0 0.004,0.006 0.009,0.01 0.0117,0.0117 0.0132,-0.01 0.0249,-0.0194 0.0391,-0.0215 l 0.008,0.004 0.01,0.002 0.008,0.006 c 0.003,-4.8e-4 0.008,-4.3e-4 0.0117,0 0.0148,0.002 0.0227,0.0175 0.0293,0.0332 v 0.01 c 4.4e-4,0.002 0.01,0.005 0.0117,0.006 10e-4,0.003 0.0107,0.009 0.0117,0.0117 9.6e-4,0.002 0.0107,0.009 0.0117,0.0117 v 0.002 c 7.9e-4,0.002 0.005,0.01 0.006,0.0117 l 0.01,0.0117 c 0.0242,0.0435 0.053,0.0867 0.0684,0.13477 0.009,0.0336 0.0208,0.0656 0.0273,0.0996 0.004,0.0207 0.007,0.0412 0.01,0.0625 l 0.004,0.008 c 0.009,-0.007 0.0185,-0.0144 0.0293,-0.0156 0.0194,-0.002 0.0297,0.009 0.0371,0.0234 h 0.004 c 0.0126,0.002 0.0174,0.006 0.0176,0.0195 0.01,0.003 0.0281,0.0696 0.0293,0.0723 0.0262,0.13804 0.0329,0.27854 0.0488,0.41797 0.003,0.0207 0.01,0.0418 0.0117,0.0625 h 0.008 c 0.003,-1.9e-4 0.009,7e-5 0.0117,0 0.009,0 0.016,0.008 0.0234,0.0137 -0.004,-0.001 -0.009,10e-4 -0.0117,-0.002 0.008,0.003 0.016,0.01 0.0215,0.0117 9.8e-4,3.9e-4 0.0107,0.002 0.0117,0.002 v 0.002 h 0.002 c 0.0251,0.007 0.0181,-6.4e-4 0.041,0.0508 -0.005,0.0476 -0.008,0.095 -0.008,0.14257 8e-5,0.0151 7.5e-4,0.0277 0,0.0391 -0.002,0.0268 -0.006,0.0545 -0.0117,0.0801 0.004,0.0158 0.009,0.031 0.0117,0.0469 3.4e-4,0.009 9.9e-4,0.0154 0,0.0234 4.6e-4,0.002 -4.7e-4,0.009 0,0.0117 0.003,0.0178 0.0117,0.0359 0.0117,0.0547 -3.7e-4,0.0166 -0.007,0.0376 -0.01,0.0527 -0.002,0.0113 -0.008,0.018 -0.0117,0.0293 -0.0155,0.0423 -0.0122,0.0303 -0.0254,0.0606 -0.003,0.008 -0.009,0.0159 -0.0117,0.0234 -0.003,0.0113 -0.008,0.0177 -0.0117,0.0254 -0.006,0.0105 -0.0109,0.0178 -0.0176,0.0273 v 0.002 l -0.004,0.004 c -0.002,0.003 -0.005,0.008 -0.008,0.0117 1e-5,0.002 2e-5,0.007 0,0.008 0.002,-9.9e-4 -0.001,-0.003 0.004,-0.008 -6.9e-4,0.003 7.7e-4,0.009 0,0.0117 -9.8e-4,0.002 -0.003,0.009 -0.004,0.0117 v 0.0117 0.002 c 7.8e-4,0.0116 -0.001,0.0214 0.002,0.0527 0.006,0.0775 0.0163,0.15497 0.0117,0.23243 l 0.002,0.0117 c -0.006,0.10784 -0.11515,0.1125 -0.11132,0.0117 -0.0112,0.003 -0.0222,0.009 -0.0332,0.0117 9.5e-4,9.8e-4 0.002,0.0107 0.004,0.0117 v 0.002 c 0.0854,0.0673 0.0155,0.1553 -0.0703,0.0859 -0.0174,-0.0138 -0.0341,-0.0297 -0.0469,-0.0449 -5.1e-4,0.002 -0.002,0.01 -0.002,0.0117 v 0.0293 c -0.004,0.0374 -0.0455,0.0332 -0.0391,-0.0117 0.002,-0.0113 -0.001,-0.0119 0.002,-0.0195 -1.1e-4,-2.3e-4 -3e-5,-0.01 0,-0.0117 v -0.004 c -0.003,-0.004 -0.01,-0.007 -0.0117,-0.0137 -0.002,-0.009 -0.008,-0.022 -0.008,-0.0332 v -0.0117 c -0.003,-0.0101 -0.003,-0.0219 -0.002,-0.0332 v -0.004 c -3.8e-4,-3.8e-4 7e-5,-0.003 0,-0.004 h 0.004 v -0.0156 c -10e-4,10e-4 -0.004,0.007 -0.006,0.01 -9.8e-4,-0.004 -0.002,-0.009 -0.002,-0.0117 -9e-5,0 0.004,-0.01 0.002,-0.01 h -0.002 c -6.6e-4,-0.004 -3e-5,-0.008 0,-0.0117 v -0.004 c -0.005,0.003 -0.0123,0.008 -0.0254,0.008 -0.005,0 -0.008,-0.007 -0.01,-0.0137 -0.001,0.0179 -0.003,0.0368 -0.004,0.0547 6.7e-4,0.003 0.004,0.0118 0.008,0.0508 3.9e-4,0.004 -2e-5,0.008 0,0.0117 -0.004,0.0228 -2.3e-4,0.0311 -0.041,0.0254 -0.005,-7.5e-4 -0.005,-0.008 -0.006,-0.0137 -10e-4,-0.009 -0.002,-0.0186 -0.002,-0.0273 1.3e-4,-0.014 8.1e-4,-0.029 0.002,-0.043 -0.002,-0.0155 -0.004,-0.0314 -0.006,-0.0469 -10e-4,-0.009 -7.6e-4,-0.018 -0.002,-0.0273 -0.003,-0.004 -0.008,0.0116 -0.008,0.004 -7.5e-4,-0.0163 -0.0117,-0.0322 -0.0117,-0.0488 0,-0.005 0.004,-0.0111 0.004,-0.0156 1.5e-4,-0.002 -5e-5,-0.006 0,-0.008 2.4e-4,-0.0106 -5.5e-4,-0.0226 0,-0.0332 5.5e-4,-0.0114 0.002,-0.0169 0.002,-0.0195 1.7e-4,-10e-4 0.002,-0.006 0.002,-0.008 -1e-4,-0.001 1e-4,-0.003 0,-0.004 -0.002,-0.0293 -0.008,-0.0585 -0.01,-0.0879 -3e-4,-0.006 -0.002,-0.0134 -0.002,-0.0195 -4.4e-4,-0.004 1.7e-4,-0.009 0,-0.0137 -8e-5,-10e-4 9e-5,-0.007 0,-0.008 -1.6e-4,-0.006 -0.002,-0.0117 -0.002,-0.0176 -1.3e-4,-0.003 1.4e-4,-0.007 0,-0.01 -0.002,-0.0315 -0.006,-0.0623 -0.008,-0.0937 -1.2e-4,-0.002 1.2e-4,-0.004 0,-0.006 v -0.002 -0.002 -0.002 c -3e-4,-0.002 -0.002,-0.004 -0.002,-0.006 v -0.002 c -5.5e-4,-0.004 -8.1e-4,-0.008 -0.002,-0.0117 -2.3e-4,-0.002 2.1e-4,-0.004 0,-0.006 -1.7e-4,-0.002 1.6e-4,-0.004 0,-0.006 -1.5e-4,-0.002 1.4e-4,-0.004 0,-0.006 -5e-4,-0.006 -0.008,-0.0132 -0.008,-0.0195 v -0.002 c -4.2e-4,-0.005 -8.1e-4,-0.0105 -0.002,-0.0156 -4.8e-4,-0.006 -8.1e-4,-0.0117 -0.002,-0.0176 -2.9e-4,-0.003 4.3e-4,-0.005 0,-0.008 -1.1e-4,-0.001 1.2e-4,-0.003 0,-0.004 v -0.002 c -5.9e-4,-0.003 -0.003,-0.008 -0.004,-0.0117 -1.8e-4,-0.001 1.9e-4,-0.003 0,-0.004 -0.002,2e-4 -0.003,-1.8e-4 -0.006,0 -0.005,3.8e-4 -0.006,-0.009 -0.008,-0.0137 -0.006,-0.0179 -0.007,-0.0362 -0.008,-0.0547 -8.4e-4,-0.019 -8.1e-4,-0.0377 -0.002,-0.0566 0,-0.022 2e-5,-0.0444 0,-0.0664 -4.7e-4,-0.003 4e-4,-0.006 0,-0.01 -0.002,-0.0181 -0.004,-0.0379 -0.004,-0.041 2.5e-4,-0.021 -1.8e-4,-0.0454 0,-0.0664 10e-6,-10e-4 -1e-5,-0.003 0,-0.004 v -0.002 c -5e-5,-0.004 -4e-5,-0.008 0,-0.0117 -2.1e-4,-0.004 -0.002,-0.008 -0.002,-0.0117 -1.2e-4,-0.002 -4e-5,-0.009 0,-0.0117 v -0.002 -0.002 c -10e-4,-0.003 -0.003,-0.007 -0.004,-0.01 v -0.002 c -7.5e-4,-0.003 -8.1e-4,-0.007 -0.002,-0.01 -0.003,-0.0136 -0.006,-0.0273 -0.008,-0.041 -0.003,-0.0256 -0.004,-0.0361 -0.006,-0.0645 -2.2e-4,-0.004 8e-5,-0.006 0,-0.01 -8.8e-4,-10e-4 -0.004,-0.002 -0.004,-0.004 -2.3e-4,-10e-4 6e-5,-0.002 0,-0.004 -5e-5,-0.002 6e-5,-0.007 0,-0.01 -0.004,-0.0329 -0.007,-0.0628 -0.01,-0.0957 -1e-4,-0.001 1e-4,-0.005 0,-0.006 -5.1e-4,-0.007 -0.002,-0.0129 -0.002,-0.0195 -9.8e-4,-0.008 -6.9e-4,-0.017 -0.002,-0.0254 -3.4e-4,-0.003 -0.002,-0.005 -0.002,-0.008 -0.002,-0.0125 -0.007,-0.0246 -0.008,-0.0371 -2.9e-4,-0.003 -5.7e-4,-0.009 0,-0.0117 v -0.002 c 9.4e-4,-0.007 0.003,-0.0157 0.01,-0.0176 h -0.002 c -0.003,-0.004 -0.0117,-0.007 -0.0117,-0.0156 1.5e-4,-0.002 -1.1e-4,-0.003 0,-0.004 v -0.01 -0.002 -0.002 c -0.001,-0.004 -0.007,-0.009 -0.008,-0.0117 -5.1e-4,-0.002 -3.5e-4,-0.008 0,-0.0117 l -0.002,-0.002 c -0.004,-0.01 -0.004,-0.0316 -0.004,-0.043 v -0.0156 c 0,-0.004 -5.9e-4,-0.009 0,-0.0117 v -0.002 c 2.2e-4,-0.003 7.2e-4,-0.009 0.004,-0.0117 -4e-4,-0.003 -0.004,-0.008 -0.004,-0.0117 -7.8e-4,-0.008 -0.002,-0.0125 -0.002,-0.0117 -3.4e-4,-9.7e-4 10e-4,-0.006 -0.002,-0.0117 -0.002,-0.0113 -0.002,-0.0217 0,-0.0293 0.003,0.004 0.001,-0.003 -0.004,-0.008 -9.9e-4,-0.004 -0.005,-0.008 -0.006,-0.0117 h 0.004 c -5.2e-4,-2.8e-4 -0.002,-0.006 -0.004,-0.008 -3.7e-4,-0.002 3.8e-4,-0.01 0,-0.0117 -5.9e-4,-0.002 -0.003,-0.0107 -0.004,-0.0117 v -0.008 l -0.002,-0.002 c -0.004,-0.0113 -0.01,-0.012 -0.01,-0.0195 2.5e-4,-0.008 -0.001,-0.01 0.002,-0.0176 7e-5,-8.9e-4 2.6e-4,-0.0107 0,-0.0117 -8.5e-4,-0.004 -0.003,-0.009 -0.004,-0.0117 -7.1e-4,-0.008 -0.002,-0.01 -0.002,-0.0137 -1.7e-4,-0.004 -1.1e-4,-0.01 0,-0.0117 0,0 0.002,-0.0181 0.002,-0.0195 -4.4e-4,-0.004 10e-4,-0.01 -0.002,-0.0117 -9.2e-4,-0.004 -0.0107,-0.008 -0.0117,-0.0117 -9.9e-4,-0.008 9.9e-4,-0.0139 0,-0.0215 6.1e-4,-0.0178 10e-4,-0.0337 -0.006,-0.0488 -7e-4,-0.004 -0.002,-0.01 -0.002,-0.0137 -2.7e-4,-0.004 0,-0.008 0,-0.0117 -10e-6,-0.0151 -10e-6,-0.0337 0,-0.0488 2.7e-4,-0.0123 8.2e-4,-0.0241 -0.002,-0.0352 h -0.004 c -8.9e-4,-9.9e-4 -0.01,-0.009 -0.01,-0.0117 v -0.004 c -2e-5,-8.9e-4 2e-5,-0.006 0,-0.008 4.4e-4,-0.002 0.008,-0.008 0.01,-0.01 -10e-4,-2.3e-4 -0.0107,-0.01 -0.0117,-0.0117 -6e-4,-5.2e-4 -0.01,-0.007 -0.01,-0.008 -9.9e-4,-0.006 -0.003,-0.0168 -0.006,-0.0215 -4.2e-4,-0.003 8.1e-4,-0.009 -0.002,-0.0117 -1.9e-4,-9.8e-4 10e-5,-0.0107 0,-0.0117 -1.9e-4,-0.006 -0.001,-0.0127 0.002,-0.0176 -0.002,-0.004 -0.009,-0.006 -0.01,-0.0117 v -0.006 c -10e-6,-9.7e-4 0,-0.0107 0,-0.0117 v -0.002 -0.006 l -0.0117,-0.004 c -9.8e-4,-0.003 -0.004,-0.008 -0.004,-0.0117 1e-4,-0.004 6.7e-4,-0.0118 0,-0.0156 1.4e-4,-9.9e-4 -2.9e-4,-0.009 0,-0.0117 -1.4e-4,-0.001 1.7e-4,-0.009 0,-0.01 v -0.006 -0.002 h -0.006 v -0.006 c -1.8e-4,-0.002 -1e-5,-0.008 0,-0.01 0,-9.9e-4 2e-5,-0.007 0,-0.008 -1.6e-4,-0.007 -7.6e-4,-0.0156 0,-0.0254 2.6e-4,-6.3e-4 -7.2e-4,-0.01 0,-0.0117 v -0.0117 c -4e-4,-0.002 -0.01,-0.008 -0.0117,-0.0156 4e-5,-0.004 3.4e-4,-0.0119 0,-0.0176 3e-5,-0.003 0,-0.0107 0,-0.0117 v -0.004 c 1.7e-4,-7.3e-4 0.0117,-0.008 0.0117,-0.01 -0.008,-0.0144 -0.0117,-0.0227 -0.0117,-0.0371 h 0.006 c -0.007,-0.008 -0.005,-0.0142 -0.0117,-0.0293 -6.6e-4,-0.006 -0.002,-0.0118 0,-0.0156 v -0.0117 c -0.005,-0.0117 -0.005,-0.0201 0,-0.0254 l 0.0117,-0.004 c -0.002,-0.004 -0.01,-0.008 -0.0117,-0.0117 l -0.002,-0.0117 c -0.009,-0.0193 0.002,-0.0276 0.0117,-0.0312 z m -22.732417,0.7168 c 0.321951,-0.0199 0.654297,0.28967 0.654297,0.92773 v 0.375 0.375 0.375 0.37891 0.39648 1 c 0,1.23744 -1.25,1.23744 -1.25,0 v -1 -0.39648 -0.37891 -0.375 -0.375 -0.375 c 0,-0.59939 0.293265,-0.90904 0.595703,-0.92773 z m 4.560547,0.97656 v 0.004 0.004 0.006 0.004 0.006 0.006 0.006 0.006 0.008 0.006 c 0.05951,-0.002 0.122902,0.0875 0.148438,0.11524 0.01557,0.0172 -0.03288,0.0597 0,0.0703 1.28e-4,0.0118 0.0018,0.0215 0.002,0.0332 0.05375,-0.0109 0.05204,0.006 0.06445,0.0703 3.02e-4,0.007 -2.62e-4,0.0143 0,0.0215 0.0034,0.009 0.0086,0.0198 0.01758,0.0586 0.0091,0.0387 0.01393,0.0781 0.02148,0.11718 4.31e-4,0.0222 4.36e-4,0.0517 0.002,0.0781 0.128243,-0.0323 0.138172,-0.0498 0.136719,0.0254 v 0.002 c 0.0019,0.002 3e-6,0.008 0,0.0117 -8.8e-5,0.003 9.9e-5,0.008 0,0.0117 -2.1e-5,0.0251 -3e-6,0.051 0,0.0762 3e-5,0.026 -1.9e-5,0.0521 0,0.0781 1.96e-4,0.007 -2.48e-4,0.0145 0,0.0215 0.0021,0.0587 0.0066,0.11703 0.01172,0.17578 -1.06e-4,0.0524 0.0022,0.10586 0,0.1582 -7.56e-4,0.0201 -0.0038,0.0386 -0.0059,0.0586 7e-5,10e-4 -8.5e-5,0.007 0,0.008 0.0082,0.12194 0.02243,0.24173 0.0332,0.36328 0.01352,0.11626 0.01767,0.23298 0.02734,0.34961 2.62e-4,0.003 -2.69e-4,0.009 0,0.0117 0.01144,0.0566 0.02313,0.11215 0.02539,0.16992 -0.07272,0.0138 -0.142832,0.0425 -0.216797,0.041 -0.004,-6e-5 -0.0063,-0.002 -0.0078,-0.006 -1.34e-4,0.0188 -0.0017,0.0378 -0.0059,0.0586 -7.56e-4,0.053 0.01241,0.10398 0.02148,0.15625 0.0102,0.0596 0.01903,0.12219 0.02734,0.18164 0.0042,0.0294 0.008,0.0584 0.01172,0.0879 0.02714,0.21725 -0.194183,0.24299 -0.21875,0.0254 -0.0097,-0.0873 -0.02394,-0.17321 -0.03906,-0.25976 -0.0068,-0.0398 -0.01734,-0.0789 -0.02148,-0.11914 -2.62e-4,-0.003 1.74e-4,-0.009 0,-0.0117 -0.0046,4.8e-4 -0.01111,-0.002 -0.01758,-0.006 -0.0015,-0.002 -0.0024,-0.006 -0.0039,-0.008 -0.0015,7e-5 -0.0026,6.7e-4 -0.0039,0 -0.0053,-0.003 -0.01071,-0.007 -0.01563,-0.01 -0.0027,-0.002 -0.004,-0.004 -0.0059,-0.006 v 0.0117 0.01 0.0195 0.0137 l 0.002,0.002 c 0.0056,0.006 0.0028,0.0166 0.002,0.0234 -2.5e-4,0.003 -1.6e-5,0.008 0,0.0117 -9.5e-5,0.005 -3.1e-5,0.0119 0,0.0176 v 0.0117 c -10e-7,0.0387 -0.03906,0.0387 -0.03906,0 0,-0.003 4e-6,-0.008 0,-0.0117 -3e-5,-0.006 -1.02e-4,-0.0119 0,-0.0176 1.9e-5,-0.002 9.2e-5,-0.007 0,-0.01 -0.0097,-0.003 -0.01867,-0.009 -0.01953,-0.0117 0.0026,-8.8e-4 0.0092,-0.004 0.01563,-0.004 v -0.0117 -0.0156 -0.0156 -0.0117 -0.0156 c 4e-6,-0.008 4e-6,-0.0155 0,-0.0234 -8e-5,-0.006 1.1e-5,-0.0112 0,-0.0176 1.09e-4,-0.006 -0.0013,-0.0134 0,-0.0195 -0.0016,-0.004 -0.0027,-0.008 -0.0039,-0.0117 4e-6,-0.005 3.8e-5,-0.009 0,-0.0137 4e-6,-0.008 1.29e-4,-0.0171 0,-0.0254 -1.55e-4,-0.005 0.0014,-0.0109 0.002,-0.0156 -0.0035,-0.006 -0.006,-0.007 -0.0059,-0.0137 4e-6,-0.004 2.3e-5,-0.008 0,-0.0117 0,-0.005 1.1e-4,-0.008 0,-0.0137 -1.62e-4,-0.005 0.0014,-0.0109 0.002,-0.0156 v -0.002 c -8.08e-4,-0.003 -0.0013,-0.009 -0.002,-0.0117 -0.002,-0.008 -0.0044,-0.0135 -0.0039,-0.0215 -3.9e-5,-3e-4 0.0014,-0.0103 0.002,-0.0117 -0.0041,-0.006 -0.0066,-0.0136 -0.0059,-0.0215 1.1e-5,-0.006 1.66e-4,-0.0135 0,-0.0195 -1.36e-4,-0.004 -6.99e-4,-0.008 0,-0.0117 v -0.004 -0.002 c -0.0024,-0.005 -0.0044,-0.008 -0.0039,-0.0137 v -0.0195 -0.0234 -0.0176 -0.0117 -0.0156 -0.0117 -0.0274 -0.0195 -0.0215 -0.0234 c -10e-7,-0.006 -2.2e-4,-0.0119 0,-0.0176 -6.47e-4,-0.006 0.003,-0.0115 0.0039,-0.0176 -0.0048,-0.007 -0.0078,-0.008 -0.0078,-0.0156 v -0.0234 -0.0117 c 0,-0.004 -4e-6,-0.008 0,-0.0117 8e-6,-0.005 1.2e-5,-0.009 0,-0.0137 8e-6,-0.007 4.2e-5,-0.0127 0,-0.0195 -4.7e-5,-5.5e-4 -1.48e-4,-0.008 0,-0.0117 -8.8e-4,-0.003 -0.0017,-0.008 -0.002,-0.01 v -0.004 c -0.0028,-0.006 -0.0064,-0.0113 -0.0059,-0.0176 -2.16e-4,-0.003 -6.81e-4,-0.008 0,-0.0117 3.49e-4,-0.002 0.0014,-0.004 0.002,-0.006 v -0.004 c -3.2e-5,-0.005 -0.0073,-0.0158 -0.0059,-0.0215 2.3e-5,-0.005 -4.69e-4,-0.006 0,-0.0117 1.33e-4,-10e-4 -5.6e-4,-0.009 0,-0.008 -0.0026,-0.007 -0.0043,-0.0124 -0.0039,-0.0195 2.7e-5,-0.01 -9.51e-4,-0.0198 0.002,-0.0293 l -0.002,-0.006 c 3.42e-4,0.002 -6.3e-5,0.002 -0.0039,-0.0137 v -0.0156 c 4e-6,-0.005 8e-6,-0.0103 0,-0.0156 0,-0.006 3.8e-5,-0.0112 0,-0.0176 -7.9e-5,-0.008 -3.7e-4,-0.0151 0,-0.0234 0.0017,0.004 -0.0024,-0.008 -0.002,-0.0117 8.31e-4,-0.008 0.0032,-0.009 0.0059,-0.0117 v -0.0117 -0.002 c -2.61e-4,-10e-4 -0.0018,-0.007 -0.002,-0.008 -6.5e-4,-0.004 -0.0014,-0.008 -0.002,-0.0117 -1.15e-4,-8e-4 1.51e-4,-0.0107 0,-0.0117 v -0.004 -0.004 c -0.0011,-0.002 -0.0032,-0.006 -0.0039,-0.008 -2.5e-4,-0.001 7.9e-5,-0.005 0,-0.006 -1.36e-4,-0.002 -3.37e-4,-0.008 0,-0.01 v -0.002 c -0.0013,-0.002 -1.5e-5,-0.0146 0,-0.0176 7.9e-5,-0.007 1.1e-5,-0.0143 0,-0.0215 4e-6,-0.004 0,-0.008 0,-0.0117 v -0.004 -0.002 -0.004 c 3.6e-5,-9.8e-4 1.2e-5,-0.003 0,-0.004 v -0.002 c 0.0011,-0.007 2.91e-4,-0.014 0,-0.0215 v -0.008 c -7.67e-4,-0.008 0.001,-0.0174 0,-0.0254 -4.61e-4,-0.004 -0.0011,-0.004 -0.002,-0.008 -6.66e-4,-0.002 -0.0014,-0.009 -0.002,-0.0117 -1.14e-4,-0.002 -1.44e-4,-0.006 0,-0.008 10e-5,-0.002 -7.85e-4,-0.007 0,-0.01 -2.19e-4,-0.004 -2.7e-5,-0.006 0,-0.01 -0.0019,-0.003 -0.0025,-0.009 -0.0039,-0.0117 -0.0023,-0.005 -0.0013,-0.0142 0,-0.0195 3.97e-4,-0.002 0.0012,-0.009 0.002,-0.01 v -0.002 c -7.51e-4,-0.002 -0.0035,-4.5e-4 -0.0039,-0.008 -4.7e-5,-6.7e-4 0.0015,-0.006 0.002,-0.008 v -0.002 c -0.0017,-0.001 -0.0044,-0.004 -0.0059,-0.006 -0.002,-0.002 3.21e-4,-0.009 0,-0.0117 -1.93e-4,-0.002 -0.0016,-0.002 -0.002,-0.004 -0.002,-0.007 -0.0035,-0.0132 -0.002,-0.0195 -8.13e-4,-0.006 -0.0047,-0.0115 -0.0039,-0.0176 7.45e-4,-0.003 0.0012,-0.008 0.002,-0.0117 h -0.002 c -0.0015,-0.004 -0.0039,-0.0158 -0.0039,-0.0176 1.9e-5,-0.004 0.0012,-0.008 0.002,-0.0117 l -0.002,-0.002 c -0.0024,-0.006 -0.0043,-0.0146 -0.002,-0.0215 -4.91e-4,-0.007 -6e-5,-0.0143 0,-0.0215 2.3e-5,-0.008 0,-0.0159 0,-0.0234 4e-6,-0.004 0,-0.006 0,-0.01 v -0.0117 c 0,-0.0131 0.0058,-0.0175 0.01172,-0.0215 v -0.0117 -0.0254 c 0,-0.002 4.7e-5,-0.004 0,-0.006 v -0.002 -0.006 h -0.002 c -4.91e-4,-9.9e-4 -0.0016,-0.007 -0.002,-0.008 -7.32e-4,-0.005 -0.0012,-0.012 0,-0.0176 -3.97e-4,-0.004 -6.1e-5,-0.01 0,-0.0137 v -0.002 c 0,-0.003 -4.88e-4,-0.009 0,-0.0117 v -0.002 -0.002 c -2.41e-4,-0.007 -5.52e-4,-0.013 0,-0.0195 -0.004,-0.006 -0.004,-0.0116 -0.0039,-0.0195 0,-0.0103 -0.0013,-0.0217 0,-0.0312 -0.0022,-0.004 -0.005,-0.009 -0.0059,-0.0117 l 0.002,-0.004 c 5.7e-5,-0.007 5.71e-4,-0.0131 0,-0.0195 1.74e-4,-0.005 -3.89e-4,-0.01 0,-0.0137 l 0.002,-0.002 c -0.0047,-0.006 -0.0064,-0.013 -0.0059,-0.0215 0,-0.003 -4e-6,-0.009 0,-0.0117 0,-0.0113 -8e-6,-0.0259 0,-0.0371 1.9e-5,-0.004 2.15e-4,-0.009 0,-0.0117 4e-6,-0.002 -2e-5,-0.01 0,-0.0117 -0.0022,-0.004 -0.0042,-0.008 -0.0039,-0.0137 v -0.004 c -0.0048,-0.007 -0.0051,-0.0164 -0.0039,-0.0254 4.76e-4,-0.007 0.0011,-0.0147 0,-0.0215 -5.21e-4,-0.003 -0.0014,-0.008 -0.002,-0.0117 -0.0014,-0.009 -0.0018,-0.0133 -0.002,-0.0176 -3.6e-5,-0.003 0,-0.01 0,-0.0156 0,-0.001 -8.2e-5,-0.003 0,-0.004 2.78e-4,-0.002 0.0014,-0.004 0.002,-0.006 -0.0046,-0.006 -0.0098,-0.0132 -0.0098,-0.0234 v -0.0176 -0.041 -0.0176 -0.0117 -0.0117 -0.0703 c 10e-7,-0.0121 0.0045,-0.0209 0.0098,-0.0254 0.0023,-9.8e-4 0.0073,-0.004 0.0098,-0.004 v -0.0234 c 0.0024,0 0.0055,-2.1e-4 0.0078,0.002 0.0052,0.005 0.01172,0.0152 0.01172,0.0273 v 0.006 h 0.002 c 0.0031,-0.003 0.01,-0.008 0.01367,-0.008 l 0.002,0.002 c 0.0034,-0.0519 0.0067,-0.10484 0.02539,-0.14063 0.01954,-0.0375 0.04312,-0.0521 0.06641,-0.0527 z m 18.51367,0.53711 c 8e-5,10e-4 -8e-5,0.003 0,0.004 0.002,9.9e-4 0.007,9.9e-4 0.006,0 -0.002,-0.002 -0.004,-0.003 -0.006,-0.004 z m -18.279295,1.41601 c -3.02e-4,0.004 -0.0018,0.009 -0.002,0.0137 -3.59e-4,0.0132 1.5e-5,0.0258 0,0.0391 -0.0053,0.0573 -0.0052,-5.5e-4 0.01367,0.0703 0.0018,0.007 0.0044,0.0131 0.0059,0.0195 -0.0053,-0.038 -0.01034,-0.077 -0.01367,-0.11523 -2.49e-4,-10e-4 2.49e-4,-0.003 0,-0.004 -0.0015,-0.008 -0.0024,-0.0156 -0.0039,-0.0234 z m 14.753905,8.625 c 0.002,-3.6e-4 0.004,4.5e-4 0.006,0 l -0.002,0.002 c 0.006,3.9e-4 0.008,0.0111 0.0117,0.0176 z m 0.10742,0.0117 c 0.002,2.2e-4 0.005,-10e-4 0.004,0.002 -0.008,0.0113 -0.0137,0.0194 -0.0195,0.0254 -0.0152,-0.0143 -0.0292,-0.0281 0,-0.0254 0.004,3.4e-4 0.0105,-0.002 0.0156,-0.002 z m 0.0273,0.0332 c 0.003,0.0134 0.003,0.0274 0.006,0.041 10e-4,-1.5e-4 0.003,0 0.004,0 0.0175,0 0.0356,0.0157 0.0391,0.0469 0.008,-0.005 0.0152,-0.01 0.0215,-0.0117 v 0.002 0.002 c 0.004,-0.001 0.006,0.002 0.006,0.0117 -2e-4,0.006 5.5e-4,0.005 -0.002,0.008 v 0.002 h 0.002 c 0.005,0.0113 0.003,0.0239 0.004,0.0352 -2e-5,0.008 -6.4e-4,0.0178 0,0.0254 0.003,0.0113 0.005,0.0238 0.004,0.0352 v 0.0254 0.0312 c 0,0.008 -3e-5,0.012 0,0.0195 0,0.0113 -1.2e-4,0.0219 0,0.0332 4.5e-4,0.008 0.001,0.018 0,0.0293 l -0.002,0.002 c 6.5e-4,0.004 0.003,0.007 0.004,0.01 0.002,0.008 0.002,0.0159 0.002,0.0234 v 0.0117 0.0332 0.0195 0.0332 0.01 c 0.0145,0.0187 0.026,0.0378 0,0.0156 v 0.0117 c -1e-5,0.008 0,0.0158 0,0.0234 -2e-5,0.011 0,0.0224 0,0.0332 0,0.003 -8e-5,0.008 0,0.0117 -5e-5,0.0101 -1.4e-4,0.0178 0,0.0293 0,10e-4 -2e-5,0.007 0,0.008 0.003,0.008 0.004,0.008 0.004,0.0156 -3e-5,0.008 -3.5e-4,0.01 0,0.0176 2.1e-4,0.009 4.5e-4,0.0152 -0.002,0.0195 -2.6e-4,9.2e-4 2.6e-4,0.0107 0,0.0117 7.8e-4,9.3e-4 -4.9e-4,0.0107 0.002,0.0117 0.005,0.0113 0.008,0.018 0.008,0.0293 1.3e-4,0.0113 6.9e-4,0.0241 0,0.0352 4.6e-4,0.005 -7e-5,0.0107 0,0.0117 3.1e-4,10e-4 0.004,0.005 0.006,0.0117 0.002,0.0113 10e-4,0.0219 0,0.0332 h -0.006 c 0.01,0.0181 0.0107,0.01 0.0117,0.0176 1.2e-4,0.008 0.002,0.0229 0,0.0254 0.003,0.006 0.0117,0.0125 0.0117,0.0195 v 0.0137 0.0254 0.0273 c 0,0.008 3e-5,0.014 0,0.0215 -7e-5,0.008 1.5e-4,0.018 0,0.0293 -1.1e-4,0.003 -0.0107,0.014 -0.0117,0.0215 0.002,0.003 0.01,0.007 0.0117,0.0117 0.001,0 -9.1e-4,0.0162 0,0.0195 1e-5,0.004 1e-5,0.008 0,0.0117 0,0.008 1e-5,0.0178 0,0.0254 0,0.008 -3e-4,0.0178 0,0.0254 3e-5,0.003 9.4e-4,0.0265 0,0.0293 6.3e-4,0.002 0.01,0.01 0.01,0.0117 0.002,0.008 0.002,0.0159 0.002,0.0234 v 0.004 c 0.004,0.004 0.0135,0.0109 0.0117,0.0195 -1.3e-4,9.5e-4 3.1e-4,0.0107 0,0.0117 0.003,0.003 0.005,0.005 0.004,0.0137 v 0.008 c 9.9e-4,0.004 0.0107,0.008 0.0117,0.0117 v 0.0117 h -0.004 c 0.003,0.008 0.0143,0.0102 0.0117,0.0215 l -0.0117,0.004 0.0117,0.002 c 0.002,0.007 0.0117,0.0126 0.0117,0.0156 h -0.0117 c 0.002,0.004 0.0125,0.006 0.0117,0.0137 5.3e-4,7.5e-4 -4.6e-4,0.002 0.002,0.004 0.003,0.008 0.003,0.008 0.004,0.0156 2.1e-4,0.007 8.5e-4,0.0135 -0.002,0.0176 v 0.002 l 0.002,0.002 c 0.003,0.008 0.0117,0.012 0.0117,0.0195 0,0.008 1e-5,0.0178 0,0.0254 0,0.004 -10e-6,0.0118 0,0.0156 -2e-5,0.004 -3.6e-4,0.007 0,0.01 9e-5,0.003 5.4e-4,0.0146 0,0.0215 v 0.002 0.002 c 0.004,0.008 0.0117,0.0126 0.0117,0.0215 v 0.0234 0.0215 0.0195 0.0254 0.0117 0.0312 c 0,0.008 8e-5,0.0118 0,0.0156 -2e-4,0.004 2.5e-4,0.01 0,0.0176 -3.7e-4,0.008 6.8e-4,0.004 0,0.0117 4.6e-4,9.9e-4 -8.5e-4,0.002 0,0.004 9.9e-4,0.004 0.005,0.008 0.006,0.0117 9.9e-4,0.004 -6.4e-4,0.0118 0,0.0156 9e-5,0.0116 5.9e-4,0.0217 0,0.0312 0.002,0.004 0.004,0.01 0.004,0.0137 9e-5,0.007 7.9e-4,0.0172 -0.002,0.0215 6.5e-4,9.9e-4 0.002,0.005 0.002,0.006 0.003,0.008 0.004,0.0159 0.004,0.0234 v 0.0176 0.0117 0.0176 c 0,0.0113 -2e-5,0.018 0,0.0293 1e-5,0.0113 1e-5,0.0208 0,0.0312 1e-4,0.0113 0.001,0.0219 0,0.0332 h -0.002 c 0.002,0.008 0.008,0.0196 0.006,0.0273 -2.9e-4,0.004 -0.003,0.009 -0.002,0.0117 0.002,0.008 0.006,0.01 0.006,0.0176 3.2e-4,0.0113 10e-4,0.018 0,0.0293 0.003,0.006 0.004,0.01 0.004,0.0156 8e-5,0.004 3.3e-4,0.0101 0,0.0176 4.4e-4,9.9e-4 -2.5e-4,0.009 0,0.01 0.003,0.0125 0.001,0.0277 -0.002,0.0391 v 0.0176 c -0.005,0.0352 -0.0374,0.023 -0.0352,-0.0117 v 0.002 c -1.5e-4,0.004 1.7e-4,0.009 0,0.0117 -0.001,-0.002 -0.008,-0.001 -0.0195,0.004 0.005,5.4e-4 0.007,0.008 0.01,0.01 0.002,3e-5 0.004,0.004 0.006,0.004 l 0.004,0.006 h 0.002 v 0.0117 h -0.002 c 0.003,0.005 0.002,0.0128 0.002,0.0293 -10e-4,0.0399 -0.0228,0.0565 -0.043,0.0547 3.1e-4,0.0196 0,0.0392 0,0.0586 7.6e-4,0.004 0.003,0.0117 0,0.0117 3.4e-4,0.046 -1e-5,0.0297 -0.0879,0.0137 -0.0646,0.0144 -0.0701,0.0265 -0.0703,-0.0117 -0.003,0 9.8e-4,-0.008 0,-0.01 -0.002,-0.005 -0.009,-0.01 -0.0117,-0.0117 -0.0247,-0.0462 -0.0358,-0.0974 -0.043,-0.14844 -0.0224,0.0145 -0.0443,0.0288 -0.0664,0.0449 -0.0161,-0.0151 -0.0383,-0.0221 -0.0488,-0.041 -0.0212,-0.0351 -0.0297,-0.0763 -0.043,-0.11524 -0.0118,-0.0348 -0.0204,-0.07 -0.0273,-0.10546 v -0.004 -0.01 c -0.002,-0.003 -0.006,-0.007 -0.008,-0.01 -0.006,-0.017 -0.0139,-0.0378 -0.0195,-0.0566 -0.002,-0.004 -1.2e-4,-0.01 0,-0.0137 8.3e-4,-0.0302 0.004,-0.0615 0.004,-0.0918 -0.002,-0.0333 -0.008,-0.0675 -0.008,-0.10156 -2.4e-4,-0.0291 -0.001,-0.0551 0.002,-0.084 -7e-5,-0.005 1.1e-4,-0.0109 0,-0.0156 -0.004,-0.1704 -0.0255,-0.34114 -0.0176,-0.51172 0.002,-0.0438 0.008,-0.087 0.0117,-0.13086 0.0196,-0.10506 0.01,-0.2106 0.008,-0.31641 0,-0.0163 0.002,-0.0109 0.006,-0.0293 -2.8e-4,0 6.4e-4,10e-4 0,-0.01 -0.006,-0.0566 0.0112,-0.0964 0.0371,-0.11328 h -0.0117 c -0.0391,0.0114 -0.12385,-0.0135 0.0117,-0.0176 -4.6e-4,-0.004 -0.002,-0.009 -0.002,-0.0117 l 0.002,-0.004 c 0.003,0.005 0.005,0.008 0.006,0.0117 0.0154,-0.006 0.0312,-0.0104 0.0469,-0.0156 -6.9e-4,-0.004 -0.002,-0.0173 -0.006,-0.0527 -10e-4,-0.0113 1.5e-4,-0.0219 -0.002,-0.0332 -0.001,-0.02 0.008,-0.0289 0.0176,-0.0293 0.01,-3.5e-4 0.0204,0.008 0.0215,0.0274 3.7e-4,0.006 0.002,0.0129 0.002,0.0195 10e-4,7.1e-4 0.003,-1.7e-4 0.004,0.002 -0.008,-0.0585 -0.0155,-0.1171 -0.0195,-0.17578 -0.005,-0.0707 0.027,-0.11104 0.0625,-0.11914 0.0113,0.0113 0.0205,0.0243 0.0273,0.0469 -0.002,-0.008 -0.003,-0.0154 -0.006,-0.0234 -0.007,-0.0275 0.001,0.004 0.0312,-0.0254 0.003,0.002 0.008,0.003 0.01,0.006 0.023,-0.0371 0.0263,-0.02 0.0293,-0.008 z m -0.13672,0.64258 v 0.002 z m 0.20899,0.26172 c -4.2e-4,0.003 -0.003,0.003 -0.004,0.006 9.9e-4,0.002 0.003,0.002 0.004,0.004 1e-5,-0.003 1e-5,-0.006 0,-0.01 z m 0.008,0.0937 c -4e-5,10e-4 0,0.003 0,0.004 9.4e-4,7.2e-4 0.005,0.003 0.004,0.002 -10e-4,-0.002 -0.003,-0.004 -0.004,-0.006 z m -19.33008,0.41602 c 0.05192,-0.005 0.103189,0.006 0.148437,0.0371 0.232249,0.16046 0.381324,0.41712 0.572266,0.625 1.45e-4,0.0397 2.6e-5,0.0794 0,0.11914 0.02736,0.0759 0.05391,0.15223 0.08008,0.22851 0.0026,-0.005 0.0073,-0.007 0.01563,-0.004 0.07816,-0.0132 0.06444,-0.0182 0.06055,0.0137 -5.56e-4,0.004 -0.0015,0.009 -0.002,0.0137 -1.35e-4,0.001 1.32e-4,0.003 0,0.004 -2.32e-4,0.003 3.39e-4,0.006 0,0.01 l -0.002,0.002 v 0.002 0.002 0.002 c 9.36e-4,0.0157 0.0027,0.0332 0.0039,0.0508 4.96e-4,0.007 0.0015,0.013 0.002,0.0195 h 0.002 c 6.1e-4,-0.005 0.0014,-0.009 0.002,-0.0137 -0.0013,-0.0109 -5.4e-4,-0.0218 0,-0.0332 0.02546,10e-4 0.05107,3.7e-4 0.07617,0.004 -1.11e-4,-10e-4 6.4e-5,-0.003 0,-0.004 2.84e-4,0.002 0.0017,0.002 0.002,0.004 h -0.002 v 0.002 h 0.002 c 0.0011,0.002 4.03e-4,0.005 0,0.008 v 0.002 c 0.0026,0.0182 0.0069,0.0365 0.0098,0.0547 0.0011,0.008 0.0028,0.0159 0.0039,0.0234 0.01285,0.0779 0.02671,0.15148 0.03125,0.23047 0.0014,0.0261 0.0026,0.0517 0.0039,0.0781 -10e-6,0.0331 -10e-7,0.0665 0,0.0996 0.0057,4.8e-4 0.006,0.003 0.0078,0.0176 0.002,0.0639 -8.77e-4,0.12754 -0.0039,0.19141 -9.49e-4,0.0197 4.1e-4,0.0417 -0.002,0.0606 -2.84e-4,0.002 -0.0014,0.004 -0.002,0.006 -4.31e-4,0.002 -0.0014,0.006 -0.002,0.008 -0.0011,0.003 -0.0011,0.006 -0.002,0.01 0.01147,0.009 0.01953,0.0271 0.01953,0.0527 v 0.0371 0.0137 c -3.93e-4,0.007 0.002,0.0177 0,0.0254 v 0.0547 0.12109 c 0,0.0121 -0.0026,0.0229 -0.0059,0.0312 3.03e-4,4.7e-4 -3e-4,0.001 0,0.002 0.06306,0.0989 0.08107,0.19742 0.07422,0.38282 -0.04123,0.41038 0.184014,0.34534 -0.0957,0.46093 -0.02264,0.3235 -0.04655,0.44313 -0.0957,0.78711 v 0.002 c -0.175,1.22491 -1.413274,1.04921 -1.238282,-0.17578 0.02086,-0.14574 0.04511,-0.29123 0.0625,-0.4375 0.01247,-0.10356 0.02054,-0.20818 0.02734,-0.3125 0.0016,-0.0227 -0.02302,-0.0608 -0.002,-0.0684 0.02924,-0.0122 0.05647,-0.0232 0.08398,-0.0352 -0.0017,-0.0299 -0.0031,-0.0677 -0.002,-0.10742 -0.355599,-0.18425 -0.462947,-0.38305 -0.490234,-0.625 -0.08111,-0.0859 -0.10522,-0.14489 -0.0078,-0.13672 7.85e-4,0.0471 0.0029,0.0926 0.0078,0.13672 0.08355,0.0885 0.226985,0.20376 0.359375,0.29883 -0.0014,-0.0183 -0.0022,-0.0397 -0.0039,-0.0625 -0.0207,-0.0513 -0.04896,-0.12101 -0.08789,-0.21094 -0.03699,-0.0392 -0.07286,-0.0786 -0.105469,-0.12109 -0.07673,-0.0257 -0.13262,-0.0399 -0.169922,-0.043 -0.0022,-0.14305 0.01051,-0.30165 0.0078,-0.47852 0,-0.0304 -0.0084,-0.3759 0.01172,-0.35742 7.89e-4,0.002 0.005,0.007 0.0059,0.01 -0.04017,-0.16868 -0.105575,-0.44601 -0.0059,-0.59179 0.02264,-0.033 0.364187,-0.49891 0.644531,-0.52344 z m 19.38281,0.30273 c 6.6e-4,0.003 0.002,0.005 0.002,0.008 -4.6e-4,-0.002 -4e-5,-0.005 0,-0.008 z m 0.002,0.0332 c -5e-5,0.008 0.002,0.0169 0.002,0.0254 v -0.0176 -0.008 z m -19.408201,0.93164 c -0.01859,0.002 -0.03576,0.004 -0.05078,0.006 0.0094,0.007 0.02015,0.0137 0.03125,0.0176 0.0066,-0.008 0.01278,-0.0159 0.01953,-0.0234 z m -0.222656,0.13282 c -0.0043,0.002 -0.0096,0.008 -0.01563,0.0156 -0.02509,0.0538 -0.05664,0.12778 -0.109375,0.23633 -0.05209,0.10721 -0.07855,0.18412 -0.08398,0.23633 0.06791,-0.0943 0.13037,-0.19422 0.193359,-0.29297 0.03766,-0.15348 0.03603,-0.20552 0.01563,-0.19531 z m 0.498047,1.46484 c -0.03396,0.0147 -0.06675,0.0291 -0.0957,0.041 0.0293,0.0344 0.06076,0.0691 0.0957,0.10547 0.04225,0.0453 0.225219,0.0661 0.181641,0.0234 -0.06718,-0.0659 -0.126641,-0.1217 -0.181641,-0.16992 z" />
    </clipPath>
    <clipPath
       clipPathUnits="userSpaceOnUse"
       id="clipPath172200">
      <path
         id="path172202"
         style="fill:#ff0000;fill-opacity:1;fill-rule:nonzero;stroke:none"
         d="m 68.869141,455.79884 v 31.19922 h 75.886719 v -31.19922 z m 36.958979,3.90625 0.002,0.004 0.002,0.002 0.002,0.01 0.002,0.01 0.002,0.01 v 0.009 l 0.002,0.01 0.002,0.006 0.002,0.008 0.002,0.006 0.002,0.008 0.002,0.01 0.002,0.0117 0.002,0.0117 0.002,0.01 0.002,0.01 0.002,0.01 0.002,0.0117 0.002,0.01 0.002,0.0117 0.002,0.01 0.002,0.0117 0.006,0.0117 0.01,0.0117 0.004,0.0117 0.004,0.0117 0.01,0.0117 0.004,0.01 0.008,0.0117 0.004,0.0117 0.004,0.01 0.004,0.0117 0.004,0.0117 0.008,0.0117 0.004,0.0117 0.004,0.0117 0.004,0.004 0.0117,0.0117 0.0117,0.002 c 0.008,3.2e-4 0.015,0.007 0.0215,0.0195 6.9e-4,10e-4 0.006,0.007 0.008,0.008 0.003,2e-5 0.009,2.8e-4 0.0117,0 0.003,-3.6e-4 0.011,-7e-4 0.0117,0 0.004,0.006 0.009,0.01 0.0117,0.0117 0.0132,-0.01 0.0249,-0.0194 0.0391,-0.0215 l 0.008,0.004 0.01,0.002 0.008,0.006 c 0.003,-4.8e-4 0.008,-4.3e-4 0.0117,0 0.0148,0.002 0.0227,0.0175 0.0293,0.0332 v 0.01 c 4.4e-4,0.002 0.01,0.005 0.0117,0.006 10e-4,0.003 0.0107,0.009 0.0117,0.0117 9.6e-4,0.002 0.0107,0.009 0.0117,0.0117 v 0.002 c 7.9e-4,0.002 0.005,0.01 0.006,0.0117 l 0.01,0.0117 c 0.0242,0.0435 0.053,0.0867 0.0684,0.13477 0.009,0.0336 0.0208,0.0656 0.0273,0.0996 0.004,0.0207 0.007,0.0412 0.01,0.0625 l 0.004,0.008 c 0.009,-0.007 0.0185,-0.0144 0.0293,-0.0156 0.0194,-0.002 0.0297,0.009 0.0371,0.0234 h 0.004 c 0.0126,0.002 0.0174,0.006 0.0176,0.0195 0.01,0.003 0.0281,0.0696 0.0293,0.0723 0.0262,0.13804 0.0329,0.27854 0.0488,0.41797 0.003,0.0207 0.01,0.0418 0.0117,0.0625 h 0.008 c 0.003,-1.9e-4 0.009,7e-5 0.0117,0 0.009,0 0.016,0.008 0.0234,0.0137 -0.004,-0.001 -0.009,10e-4 -0.0117,-0.002 0.008,0.003 0.016,0.01 0.0215,0.0117 9.8e-4,3.9e-4 0.0107,0.002 0.0117,0.002 v 0.002 h 0.002 c 0.0251,0.007 0.0181,-6.4e-4 0.041,0.0508 -0.005,0.0476 -0.008,0.095 -0.008,0.14257 8e-5,0.0151 7.5e-4,0.0277 0,0.0391 -0.002,0.0268 -0.006,0.0545 -0.0117,0.0801 0.004,0.0158 0.009,0.031 0.0117,0.0469 3.4e-4,0.009 9.9e-4,0.0154 0,0.0234 4.6e-4,0.002 -4.7e-4,0.009 0,0.0117 0.003,0.0178 0.0117,0.0359 0.0117,0.0547 -3.7e-4,0.0166 -0.007,0.0376 -0.01,0.0527 -0.002,0.0113 -0.008,0.018 -0.0117,0.0293 -0.0155,0.0423 -0.0122,0.0303 -0.0254,0.0606 -0.003,0.008 -0.009,0.0159 -0.0117,0.0234 -0.003,0.0113 -0.008,0.0177 -0.0117,0.0254 -0.006,0.0105 -0.0109,0.0178 -0.0176,0.0273 v 0.002 l -0.004,0.004 c -0.002,0.003 -0.005,0.008 -0.008,0.0117 1e-5,0.002 2e-5,0.007 0,0.008 0.002,-9.9e-4 -0.001,-0.003 0.004,-0.008 -6.9e-4,0.003 7.7e-4,0.009 0,0.0117 -9.8e-4,0.002 -0.003,0.009 -0.004,0.0117 v 0.0117 0.002 c 7.8e-4,0.0116 -0.001,0.0214 0.002,0.0527 0.006,0.0775 0.0163,0.15497 0.0117,0.23243 l 0.002,0.0117 c -0.006,0.10784 -0.11515,0.1125 -0.11132,0.0117 -0.0112,0.003 -0.0222,0.009 -0.0332,0.0117 9.5e-4,9.8e-4 0.002,0.0107 0.004,0.0117 v 0.002 c 0.0854,0.0673 0.0155,0.1553 -0.0703,0.0859 -0.0174,-0.0138 -0.0341,-0.0297 -0.0469,-0.0449 -5.1e-4,0.002 -0.002,0.01 -0.002,0.0117 v 0.0293 c -0.004,0.0374 -0.0455,0.0332 -0.0391,-0.0117 0.002,-0.0113 -0.001,-0.0119 0.002,-0.0195 -1.1e-4,-2.3e-4 -3e-5,-0.01 0,-0.0117 v -0.004 c -0.003,-0.004 -0.01,-0.007 -0.0117,-0.0137 -0.002,-0.009 -0.008,-0.022 -0.008,-0.0332 v -0.0117 c -0.003,-0.0101 -0.003,-0.0219 -0.002,-0.0332 v -0.004 c -3.8e-4,-3.8e-4 7e-5,-0.003 0,-0.004 h 0.004 v -0.0156 c -10e-4,10e-4 -0.004,0.007 -0.006,0.01 -9.8e-4,-0.004 -0.002,-0.009 -0.002,-0.0117 -9e-5,0 0.004,-0.01 0.002,-0.01 h -0.002 c -6.6e-4,-0.004 -3e-5,-0.008 0,-0.0117 v -0.004 c -0.005,0.003 -0.0123,0.008 -0.0254,0.008 -0.005,0 -0.008,-0.007 -0.01,-0.0137 -0.001,0.0179 -0.003,0.0368 -0.004,0.0547 6.7e-4,0.003 0.004,0.0118 0.008,0.0508 3.9e-4,0.004 -2e-5,0.008 0,0.0117 -0.004,0.0228 -2.3e-4,0.0311 -0.041,0.0254 -0.005,-7.5e-4 -0.005,-0.008 -0.006,-0.0137 -10e-4,-0.009 -0.002,-0.0186 -0.002,-0.0273 1.3e-4,-0.014 8.1e-4,-0.029 0.002,-0.043 -0.002,-0.0155 -0.004,-0.0314 -0.006,-0.0469 -6.3e-4,-0.005 -8.1e-4,-0.0103 -0.002,-0.0156 -0.003,-0.004 -0.008,-0.005 -0.008,-0.0117 -7.5e-4,-0.0163 -0.0117,-0.0322 -0.0117,-0.0488 0,-0.005 0.004,-0.0111 0.004,-0.0156 1.5e-4,-0.002 -5e-5,-0.004 0,-0.006 2.4e-4,-0.0106 -5.5e-4,-0.0226 0,-0.0332 5.5e-4,-0.0114 0.002,-0.0169 0.002,-0.0195 1.7e-4,-10e-4 0.002,-0.004 0.002,-0.006 -1e-4,-0.001 1e-4,-0.003 0,-0.004 -0.002,-0.0293 -0.008,-0.0585 -0.01,-0.0879 -3e-4,-0.006 -0.002,-0.0134 -0.002,-0.0195 -4.4e-4,-0.004 1.7e-4,-0.009 0,-0.0137 -8e-5,-10e-4 9e-5,-0.005 0,-0.006 -1.6e-4,-0.006 -0.002,-0.0136 -0.002,-0.0195 -1.3e-4,-0.003 1.4e-4,-0.007 0,-0.01 -0.002,-0.0315 -0.006,-0.0623 -0.008,-0.0937 -1.2e-4,-0.002 1.2e-4,-0.004 0,-0.006 v -0.002 -0.002 -0.002 c -3e-4,-0.002 -0.002,-0.004 -0.002,-0.006 v -0.002 c -5.5e-4,-0.004 -8.1e-4,-0.008 -0.002,-0.0117 -2.3e-4,-0.002 2.1e-4,-0.004 0,-0.006 -1.7e-4,-0.002 1.6e-4,-0.004 0,-0.006 -1.5e-4,-0.002 1.4e-4,-0.004 0,-0.006 -5e-4,-0.006 -0.008,-0.0132 -0.008,-0.0195 v -0.002 c -4.2e-4,-0.005 -8.1e-4,-0.0105 -0.002,-0.0156 -4.8e-4,-0.006 -8.1e-4,-0.0117 -0.002,-0.0176 -2.9e-4,-0.003 4.3e-4,-0.005 0,-0.008 -1.1e-4,-10e-4 1.2e-4,-0.005 0,-0.006 v -0.004 c -5.9e-4,-0.003 -0.003,-0.006 -0.004,-0.01 -1.8e-4,-10e-4 1.9e-4,-0.003 0,-0.004 -0.002,2e-4 -0.003,-1.8e-4 -0.006,0 -0.005,3.8e-4 -0.006,-0.009 -0.008,-0.0137 -0.006,-0.0179 -0.007,-0.0362 -0.008,-0.0547 -8.4e-4,-0.019 -8.1e-4,-0.0377 -0.002,-0.0566 0,-0.022 2e-5,-0.0444 0,-0.0664 -4.7e-4,-0.003 4e-4,-0.008 0,-0.0117 -0.002,-0.0181 -0.004,-0.0379 -0.004,-0.041 2.5e-4,-0.021 -1.8e-4,-0.0435 0,-0.0644 10e-6,-10e-4 -1e-5,-0.003 0,-0.004 v -0.004 c -5e-5,-0.004 -4e-5,-0.006 0,-0.01 -2.1e-4,-0.004 -0.002,-0.008 -0.002,-0.0117 -1.2e-4,-0.002 -4e-5,-0.007 0,-0.01 v -0.002 -0.002 c -10e-4,-0.003 -0.003,-0.007 -0.004,-0.01 v -0.002 c -7.5e-4,-0.003 -8.1e-4,-0.007 -0.002,-0.01 -0.003,-0.0136 -0.006,-0.0273 -0.008,-0.041 -0.003,-0.0256 -0.004,-0.0361 -0.006,-0.0645 -2.2e-4,-0.004 8e-5,-0.006 0,-0.01 -8.8e-4,-0.001 -0.004,-0.004 -0.004,-0.006 -2.3e-4,-10e-4 6e-5,-0.004 0,-0.006 -5e-5,-0.002 6e-5,-0.005 0,-0.008 -0.004,-0.0329 -0.007,-0.0648 -0.01,-0.0977 -1e-4,-10e-4 1e-4,-0.003 0,-0.004 -5.1e-4,-0.007 -0.002,-0.0129 -0.002,-0.0195 -9.8e-4,-0.008 -6.9e-4,-0.017 -0.002,-0.0254 -3.4e-4,-0.003 -0.002,-0.007 -0.002,-0.01 -0.002,-0.0125 -0.007,-0.0246 -0.008,-0.0371 -2.9e-4,-0.003 -5.7e-4,-0.007 0,-0.01 v -0.002 c 9.4e-4,-0.007 0.003,-0.0157 0.01,-0.0176 h -0.002 c -0.003,-0.004 -0.0117,-0.005 -0.0117,-0.0137 1.5e-4,-0.002 -1.1e-4,-0.003 0,-0.004 v -0.01 -0.002 -0.002 c -0.001,-0.004 -0.007,-0.009 -0.008,-0.0117 -5.1e-4,-0.002 -3.5e-4,-0.008 0,-0.0117 l -0.002,-0.002 c -0.004,-0.01 -0.004,-0.0316 -0.004,-0.043 v -0.0156 c 0,-0.004 -5.9e-4,-0.009 0,-0.0117 v -0.002 c 2.2e-4,-0.003 7.2e-4,-0.009 0.004,-0.0117 -4e-4,-0.003 -0.004,-0.008 -0.004,-0.0117 -7.8e-4,-0.008 -0.002,-0.0125 -0.002,-0.0117 -3.4e-4,-9.7e-4 10e-4,-0.006 -0.002,-0.0117 -0.002,-0.0113 -0.002,-0.0217 0,-0.0293 0.003,0.004 0.001,-0.003 -0.004,-0.008 -9.9e-4,-0.004 -0.005,-0.008 -0.006,-0.0117 h 0.004 c -5.2e-4,-2.8e-4 -0.002,-0.006 -0.004,-0.008 -3.7e-4,-0.002 3.8e-4,-0.01 0,-0.0117 -5.9e-4,-0.002 -0.003,-0.0107 -0.004,-0.0117 v -0.008 l -0.002,-0.002 c -0.004,-0.0113 -0.01,-0.012 -0.01,-0.0195 2.5e-4,-0.008 -0.001,-0.01 0.002,-0.0176 7e-5,-8.9e-4 2.6e-4,-0.0107 0,-0.0117 -8.5e-4,-0.004 -0.003,-0.009 -0.004,-0.0117 -7.1e-4,-0.008 -0.002,-0.01 -0.002,-0.0137 -1.7e-4,-0.004 -1.1e-4,-0.01 0,-0.0117 0,0 0.002,-0.0181 0.002,-0.0195 -4.4e-4,-0.004 10e-4,-0.01 -0.002,-0.0117 -9.2e-4,-0.004 -0.0107,-0.008 -0.0117,-0.0117 -9.9e-4,-0.008 9.9e-4,-0.0139 0,-0.0215 6.1e-4,-0.0178 10e-4,-0.0337 -0.006,-0.0488 -7e-4,-0.004 -0.002,-0.01 -0.002,-0.0137 -2.7e-4,-0.004 0,-0.008 0,-0.0117 -10e-6,-0.0151 -10e-6,-0.0337 0,-0.0488 2.7e-4,-0.0123 8.2e-4,-0.0241 -0.002,-0.0352 h -0.004 c -8.9e-4,-9.9e-4 -0.01,-0.009 -0.01,-0.0117 v -0.004 c -2e-5,-8.9e-4 2e-5,-0.006 0,-0.008 4.4e-4,-0.002 0.008,-0.01 0.01,-0.0117 -10e-4,-2.3e-4 -0.0107,-0.01 -0.0117,-0.0117 -6e-4,-5.2e-4 -0.01,-0.005 -0.01,-0.006 -9.9e-4,-0.006 -0.003,-0.0168 -0.006,-0.0215 -4.2e-4,-0.003 8.1e-4,-0.009 -0.002,-0.0117 -1.9e-4,-9.8e-4 10e-5,-0.0107 0,-0.0117 -1.9e-4,-0.006 -0.001,-0.0127 0.002,-0.0176 -0.002,-0.004 -0.009,-0.006 -0.01,-0.0117 v -0.006 c -10e-6,-9.7e-4 0,-0.0107 0,-0.0117 v -0.002 -0.006 l -0.0117,-0.004 c -9.8e-4,-0.003 -0.004,-0.008 -0.004,-0.0117 1e-4,-0.004 6.7e-4,-0.0118 0,-0.0156 1.4e-4,-9.9e-4 -2.9e-4,-0.009 0,-0.0117 -1.4e-4,-10e-4 1.7e-4,-0.009 0,-0.01 v -0.004 -0.004 h -0.006 v -0.006 c -1.8e-4,-0.002 -1e-5,-0.008 0,-0.01 0,-9.9e-4 2e-5,-0.007 0,-0.008 -1.6e-4,-0.007 -7.6e-4,-0.0156 0,-0.0254 2.6e-4,-6.3e-4 -7.2e-4,-0.01 0,-0.0117 v -0.0117 c -4e-4,-0.002 -0.01,-0.008 -0.0117,-0.0156 4e-5,-0.004 3.4e-4,-0.0119 0,-0.0176 3e-5,-0.003 0,-0.0107 0,-0.0117 v -0.004 c 1.7e-4,-7.3e-4 0.0117,-0.01 0.0117,-0.0117 -0.008,-0.0144 -0.0117,-0.0227 -0.0117,-0.0371 h 0.006 c -0.007,-0.008 -0.005,-0.0142 -0.0117,-0.0293 -6.6e-4,-0.006 -0.002,-0.0118 0,-0.0156 v -0.01 c -0.005,-0.0117 -0.005,-0.0201 0,-0.0254 l 0.0117,-0.006 c -0.002,-0.004 -0.01,-0.008 -0.0117,-0.0117 l -0.002,-0.01 c -0.009,-0.0193 0.002,-0.0276 0.0117,-0.0312 z m -22.732417,0.7168 c 0.321951,-0.0199 0.654297,0.28967 0.654297,0.92773 v 0.375 0.375 0.375 0.37891 0.39648 1 c 0,1.23744 -1.25,1.23744 -1.25,0 v -1 -0.39648 -0.37891 -0.375 -0.375 -0.375 c 0,-0.59939 0.293265,-0.90904 0.595703,-0.92773 z m 4.560547,0.97656 v 0.004 0.004 0.006 0.004 0.006 0.006 0.006 0.006 0.008 0.006 c 0.05951,-0.002 0.122902,0.0875 0.148438,0.11524 0.01557,0.0172 -0.03288,0.0597 0,0.0703 1.28e-4,0.0118 0.0018,0.0215 0.002,0.0332 0.05375,-0.0109 0.05204,0.006 0.06445,0.0703 3.02e-4,0.007 -2.62e-4,0.0143 0,0.0215 0.0034,0.009 0.0086,0.0198 0.01758,0.0586 0.0091,0.0387 0.01393,0.0781 0.02148,0.11718 4.31e-4,0.0222 4.36e-4,0.0517 0.002,0.0781 0.128243,-0.0323 0.138172,-0.0498 0.136719,0.0254 v 0.002 c 0.0019,0.002 3e-6,0.008 0,0.0117 -8.8e-5,0.003 9.9e-5,0.008 0,0.0117 -2.1e-5,0.0251 -3e-6,0.051 0,0.0762 3e-5,0.026 -1.9e-5,0.0521 0,0.0781 1.96e-4,0.007 -2.48e-4,0.0145 0,0.0215 0.0021,0.0587 0.0066,0.11703 0.01172,0.17578 -1.06e-4,0.0524 0.0022,0.10586 0,0.1582 -7.56e-4,0.0201 -0.0038,0.0386 -0.0059,0.0586 7e-5,10e-4 -8.5e-5,0.007 0,0.008 0.0082,0.12194 0.02243,0.24173 0.0332,0.36328 0.01352,0.11626 0.01767,0.23298 0.02734,0.34961 2.62e-4,0.003 -2.69e-4,0.009 0,0.0117 0.01144,0.0566 0.02313,0.11215 0.02539,0.16992 -0.07272,0.0138 -0.142832,0.0425 -0.216797,0.041 -0.004,-6e-5 -0.0063,-0.002 -0.0078,-0.006 -1.34e-4,0.0188 -0.0017,0.0378 -0.0059,0.0586 -7.56e-4,0.053 0.01241,0.10398 0.02148,0.15625 0.0102,0.0596 0.01903,0.12219 0.02734,0.18164 0.0042,0.0294 0.008,0.0584 0.01172,0.0879 0.02714,0.21725 -0.194183,0.24299 -0.21875,0.0254 -0.0097,-0.0873 -0.02394,-0.17321 -0.03906,-0.25976 -0.0068,-0.0398 -0.01734,-0.0789 -0.02148,-0.11914 -2.62e-4,-0.003 1.74e-4,-0.009 0,-0.0117 -0.0046,4.8e-4 -0.01111,-0.002 -0.01758,-0.006 -0.0015,-0.002 -0.0024,-0.006 -0.0039,-0.008 -0.0015,7e-5 -0.0026,6.7e-4 -0.0039,0 -0.0053,-0.003 -0.01071,-0.007 -0.01563,-0.01 -0.0027,-0.002 -0.004,-0.004 -0.0059,-0.006 v 0.0117 0.01 0.0195 0.0137 l 0.002,0.002 c 0.0056,0.006 0.0028,0.0166 0.002,0.0234 -2.5e-4,0.003 -1.6e-5,0.008 0,0.0117 -9.5e-5,0.005 -3.1e-5,0.0119 0,0.0176 v 0.0117 c -10e-7,0.0387 -0.03906,0.0387 -0.03906,0 0,-0.003 4e-6,-0.008 0,-0.0117 -3e-5,-0.006 -1.02e-4,-0.0119 0,-0.0176 1.9e-5,-0.002 9.2e-5,-0.007 0,-0.01 -0.0097,-0.003 -0.01867,-0.009 -0.01953,-0.0117 0.0026,-8.8e-4 0.0092,-0.004 0.01563,-0.004 v -0.0117 -0.0156 -0.0156 -0.0117 -0.0156 c 4e-6,-0.008 4e-6,-0.0155 0,-0.0234 -8e-5,-0.006 1.1e-5,-0.0112 0,-0.0176 1.09e-4,-0.006 -0.0013,-0.0134 0,-0.0195 -0.0016,-0.004 -0.0027,-0.008 -0.0039,-0.0117 4e-6,-0.005 3.8e-5,-0.009 0,-0.0137 4e-6,-0.008 1.29e-4,-0.0171 0,-0.0254 -1.55e-4,-0.005 0.0014,-0.0109 0.002,-0.0156 -0.0035,-0.006 -0.006,-0.007 -0.0059,-0.0137 4e-6,-0.004 2.3e-5,-0.008 0,-0.0117 0,-0.005 1.1e-4,-0.008 0,-0.0137 -1.62e-4,-0.005 0.0014,-0.0109 0.002,-0.0156 v -0.002 c -8.08e-4,-0.003 -0.0013,-0.009 -0.002,-0.0117 -0.002,-0.008 -0.0044,-0.0135 -0.0039,-0.0215 -3.9e-5,-3e-4 0.0014,-0.0103 0.002,-0.0117 -0.0041,-0.006 -0.0066,-0.0136 -0.0059,-0.0215 1.1e-5,-0.006 1.66e-4,-0.0135 0,-0.0195 -1.36e-4,-0.004 -6.99e-4,-0.008 0,-0.0117 v -0.004 -0.002 c -0.0024,-0.005 -0.0044,-0.008 -0.0039,-0.0137 v -0.0195 -0.0234 -0.0176 -0.0117 -0.0156 -0.0117 -0.0274 -0.0195 -0.0215 -0.0234 c -10e-7,-0.006 -2.2e-4,-0.0119 0,-0.0176 -6.47e-4,-0.006 0.003,-0.0115 0.0039,-0.0176 -0.0048,-0.007 -0.0078,-0.008 -0.0078,-0.0156 v -0.0234 -0.0117 c 0,-0.004 -4e-6,-0.008 0,-0.0117 8e-6,-0.005 1.2e-5,-0.009 0,-0.0137 8e-6,-0.007 4.2e-5,-0.0127 0,-0.0195 -4.7e-5,-5.5e-4 -1.48e-4,-0.008 0,-0.0117 -8.8e-4,-0.003 -0.0017,-0.008 -0.002,-0.01 v -0.004 c -0.0028,-0.006 -0.0064,-0.0113 -0.0059,-0.0176 -2.16e-4,-0.003 -6.81e-4,-0.008 0,-0.0117 3.49e-4,-0.002 0.0014,-0.004 0.002,-0.006 v -0.004 c -3.2e-5,-0.005 -0.0073,-0.0158 -0.0059,-0.0215 2.3e-5,-0.005 -4.69e-4,-0.006 0,-0.0117 1.33e-4,-10e-4 -5.6e-4,-0.009 0,-0.008 -0.0026,-0.007 -0.0043,-0.0124 -0.0039,-0.0195 2.7e-5,-0.01 -9.51e-4,-0.0198 0.002,-0.0293 l -0.002,-0.006 c 3.42e-4,0.002 -6.3e-5,0.002 -0.0039,-0.0137 v -0.0156 c 4e-6,-0.005 8e-6,-0.0103 0,-0.0156 0,-0.006 3.8e-5,-0.0112 0,-0.0176 -7.9e-5,-0.008 -3.7e-4,-0.0151 0,-0.0234 0.0017,0.004 -0.0024,-0.008 -0.002,-0.0117 8.31e-4,-0.008 0.0032,-0.009 0.0059,-0.0117 v -0.0117 -0.002 c -2.61e-4,-10e-4 -0.0018,-0.007 -0.002,-0.008 -6.5e-4,-0.004 -0.0014,-0.008 -0.002,-0.0117 -1.15e-4,-8e-4 1.51e-4,-0.0107 0,-0.0117 v -0.004 -0.004 c -0.0011,-0.002 -0.0032,-0.006 -0.0039,-0.008 -2.5e-4,-0.001 7.9e-5,-0.005 0,-0.006 -1.36e-4,-0.002 -3.37e-4,-0.008 0,-0.01 v -0.002 c -0.0013,-0.002 -1.5e-5,-0.0146 0,-0.0176 7.9e-5,-0.007 1.1e-5,-0.0143 0,-0.0215 4e-6,-0.004 0,-0.008 0,-0.0117 v -0.004 -0.002 -0.004 c 3.6e-5,-9.8e-4 1.2e-5,-0.003 0,-0.004 v -0.002 c 0.0011,-0.007 2.91e-4,-0.014 0,-0.0215 v -0.008 c -7.67e-4,-0.008 0.001,-0.0174 0,-0.0254 -4.61e-4,-0.004 -0.0011,-0.004 -0.002,-0.008 -6.66e-4,-0.002 -0.0014,-0.009 -0.002,-0.0117 -1.14e-4,-0.002 -1.44e-4,-0.006 0,-0.008 10e-5,-0.002 -7.85e-4,-0.007 0,-0.01 -2.19e-4,-0.004 -2.7e-5,-0.006 0,-0.01 -0.0019,-0.003 -0.0025,-0.009 -0.0039,-0.0117 -0.0023,-0.005 -0.0013,-0.0142 0,-0.0195 3.97e-4,-0.002 0.0012,-0.009 0.002,-0.01 v -0.002 c -7.51e-4,-0.002 -0.0035,-4.5e-4 -0.0039,-0.008 -4.7e-5,-6.7e-4 0.0015,-0.006 0.002,-0.008 v -0.002 c -0.0017,-0.001 -0.0044,-0.004 -0.0059,-0.006 -0.002,-0.002 3.21e-4,-0.009 0,-0.0117 -1.93e-4,-0.002 -0.0016,-0.002 -0.002,-0.004 -0.002,-0.007 -0.0035,-0.0132 -0.002,-0.0195 -8.13e-4,-0.006 -0.0047,-0.0115 -0.0039,-0.0176 7.45e-4,-0.003 0.0012,-0.008 0.002,-0.0117 h -0.002 c -0.0015,-0.004 -0.0039,-0.0158 -0.0039,-0.0176 1.9e-5,-0.004 0.0012,-0.008 0.002,-0.0117 l -0.002,-0.002 c -0.0024,-0.006 -0.0043,-0.0146 -0.002,-0.0215 -4.91e-4,-0.007 -6e-5,-0.0143 0,-0.0215 2.3e-5,-0.008 0,-0.0159 0,-0.0234 4e-6,-0.004 0,-0.006 0,-0.01 v -0.0117 c 0,-0.0131 0.0058,-0.0175 0.01172,-0.0215 v -0.0117 -0.0254 c 0,-0.002 4.7e-5,-0.004 0,-0.006 v -0.002 -0.006 h -0.002 c -4.91e-4,-9.9e-4 -0.0016,-0.007 -0.002,-0.008 -7.32e-4,-0.005 -0.0012,-0.012 0,-0.0176 -3.97e-4,-0.004 -6.1e-5,-0.01 0,-0.0137 v -0.002 c 0,-0.003 -4.88e-4,-0.009 0,-0.0117 v -0.002 -0.002 c -2.41e-4,-0.007 -5.52e-4,-0.013 0,-0.0195 -0.004,-0.006 -0.004,-0.0116 -0.0039,-0.0195 0,-0.0103 -0.0013,-0.0217 0,-0.0312 -0.0022,-0.004 -0.005,-0.009 -0.0059,-0.0117 l 0.002,-0.004 c 5.7e-5,-0.007 5.71e-4,-0.0131 0,-0.0195 1.74e-4,-0.005 -3.89e-4,-0.01 0,-0.0137 l 0.002,-0.002 c -0.0047,-0.006 -0.0064,-0.013 -0.0059,-0.0215 0,-0.003 -4e-6,-0.009 0,-0.0117 0,-0.0113 -8e-6,-0.0259 0,-0.0371 1.9e-5,-0.004 2.15e-4,-0.009 0,-0.0117 4e-6,-0.002 -2e-5,-0.01 0,-0.0117 -0.0022,-0.004 -0.0042,-0.008 -0.0039,-0.0137 v -0.004 c -0.0048,-0.007 -0.0051,-0.0164 -0.0039,-0.0254 4.76e-4,-0.007 0.0011,-0.0147 0,-0.0215 -5.21e-4,-0.003 -0.0014,-0.008 -0.002,-0.0117 -0.0014,-0.009 -0.0018,-0.0133 -0.002,-0.0176 -3.6e-5,-0.003 0,-0.01 0,-0.0156 0,-0.001 -8.2e-5,-0.003 0,-0.004 2.78e-4,-0.002 0.0014,-0.004 0.002,-0.006 -0.0046,-0.006 -0.0098,-0.0132 -0.0098,-0.0234 v -0.0176 -0.041 -0.0176 -0.0117 -0.0117 -0.0703 c 10e-7,-0.0121 0.0045,-0.0209 0.0098,-0.0254 0.0023,-9.8e-4 0.0073,-0.004 0.0098,-0.004 v -0.0234 c 0.0024,0 0.0055,-2.1e-4 0.0078,0.002 0.0052,0.005 0.01172,0.0152 0.01172,0.0273 v 0.006 h 0.002 c 0.0031,-0.003 0.01,-0.008 0.01367,-0.008 l 0.002,0.002 c 0.0034,-0.0519 0.0067,-0.10484 0.02539,-0.14063 0.01954,-0.0375 0.04312,-0.0521 0.06641,-0.0527 z m 18.51367,0.53711 c 8e-5,10e-4 -8e-5,0.003 0,0.004 0.002,9.9e-4 0.007,9.9e-4 0.006,0 -0.002,-0.002 -0.004,-0.003 -0.006,-0.004 z m -18.279295,1.41601 c -3.02e-4,0.004 -0.0018,0.009 -0.002,0.0137 -3.59e-4,0.0132 1.5e-5,0.0258 0,0.0391 -0.0053,0.0573 -0.0052,-5.5e-4 0.01367,0.0703 0.0018,0.007 0.0044,0.0131 0.0059,0.0195 -0.0053,-0.038 -0.01034,-0.077 -0.01367,-0.11523 -2.49e-4,-10e-4 2.49e-4,-0.003 0,-0.004 -0.0015,-0.008 -0.0024,-0.0156 -0.0039,-0.0234 z m 14.753905,8.625 c 10e-4,-3e-4 0.004,4.2e-4 0.006,0 l -0.002,0.002 z m 0.10742,0.0117 c 0.002,3e-4 0.005,-10e-4 0.004,0.002 -0.009,0.0123 -0.0151,0.0213 -0.0215,0.0274 -0.0182,-0.0164 -0.0303,-0.0303 0.002,-0.0274 0.004,3.4e-4 0.0105,-0.002 0.0156,-0.002 z m -0.0508,0.0352 c 0.009,0.004 0.0195,0.007 0.0254,0.0195 0.005,3.9e-4 0.0119,-1.2e-4 0.0254,-0.0137 0.004,0.003 0.009,0.004 0.0117,0.008 0.008,-0.013 0.0119,-0.0128 0.0156,-0.0137 0.003,0.0129 0.003,0.026 0.006,0.0391 10e-4,-1.5e-4 0.003,0 0.004,0 0.0175,0 0.0356,0.0157 0.0391,0.0469 0.008,-0.005 0.0152,-0.01 0.0215,-0.0117 v 0.002 0.002 c 0.004,-0.001 0.006,0.002 0.006,0.0117 -2e-4,0.006 5.6e-4,0.005 -0.002,0.008 v 0.002 h 0.002 c 0.005,0.0113 0.003,0.0239 0.004,0.0352 -2e-5,0.008 -6.4e-4,0.0178 0,0.0254 0.003,0.0113 0.007,0.0238 0.006,0.0352 v 0.0254 0.0312 c 0,0.008 -3e-5,0.012 0,0.0195 0,0.0113 -1.2e-4,0.0219 0,0.0332 4.5e-4,0.008 0.001,0.018 0,0.0293 l -0.004,0.002 c 6.5e-4,0.004 0.005,0.009 0.006,0.0117 0.002,0.008 0.002,0.0159 0.002,0.0234 v 0.01 0.0332 0.0195 0.0332 0.0117 c 0.0145,0.0187 0.026,0.0378 0,0.0156 v 0.0117 c -1e-5,0.008 0,0.0139 0,0.0215 -2e-5,0.011 0,0.0263 0,0.0371 0,0.003 -8e-5,0.008 0,0.0117 -5e-5,0.0101 -1.4e-4,0.0178 0,0.0293 1e-5,10e-4 -2e-5,0.0107 0,0.0117 0.003,0.008 0.0117,0.006 0.0117,0.0137 -3e-5,0.008 -3.5e-4,0.0119 0,0.0195 2.1e-4,0.009 -0.01,0.0133 -0.0117,0.0176 -2.6e-4,9.9e-4 2.6e-4,0.0107 0,0.0117 7.8e-4,9.3e-4 0.01,0.0107 0.0117,0.0117 0.005,0.0113 0.0117,0.018 0.0117,0.0293 1.3e-4,0.0113 6.9e-4,0.0219 0,0.0332 4.6e-4,0.005 -6e-5,0.0107 0,0.0117 3.1e-4,10e-4 -4.3e-4,0.005 0.002,0.0117 0.002,0.0113 10e-4,0.0219 0,0.0332 h -0.002 c 0.01,0.0181 0.0107,0.01 0.0117,0.0176 1.2e-4,0.008 0.002,0.0229 0,0.0254 0.003,0.006 0.0117,0.0125 0.0117,0.0195 v 0.0137 0.0273 0.0254 c 10e-6,0.008 8e-5,0.014 0,0.0215 -7e-5,0.008 2e-4,0.018 0,0.0293 -1.1e-4,0.003 -0.0107,0.014 -0.0117,0.0215 0.002,0.003 0.01,0.007 0.0117,0.0117 10e-4,0 -9.1e-4,0.0143 0,0.0176 10e-6,0.004 10e-6,0.008 0,0.0117 0,0.008 10e-6,0.0216 0,0.0293 0,0.008 -3e-4,0.0178 0,0.0254 3e-5,0.003 9.4e-4,0.0265 0,0.0293 6.3e-4,0.002 0.008,0.01 0.008,0.0117 0.002,0.008 0.0117,0.014 0.0117,0.0215 v 0.0117 c 0.004,0.004 0.0135,0.009 0.0117,0.0176 -1.3e-4,9.5e-4 3.1e-4,0.005 0,0.006 0.003,0.003 0.007,0.005 0.006,0.0137 v 0.004 c 9.8e-4,0.004 0.007,0.008 0.008,0.0117 v 0.004 h -0.006 c 0.003,0.008 0.0143,0.0102 0.0117,0.0215 l -0.004,0.0117 0.004,0.002 c 0.002,0.007 0.008,0.0126 0.008,0.0156 h -0.002 c 0.002,0.004 0.007,0.006 0.006,0.0137 5.3e-4,7.5e-4 -4.1e-4,0.002 0.002,0.004 0.003,0.008 0.003,0.008 0.004,0.0156 2.1e-4,0.007 8.6e-4,0.0135 -0.002,0.0176 v 0.002 l 0.002,0.002 c 0.003,0.008 0.004,0.012 0.004,0.0195 0,0.008 1e-5,0.0178 0,0.0254 0,0.004 -1e-5,0.0118 0,0.0156 -2e-5,0.004 -3.6e-4,0.007 0,0.01 9e-5,0.003 5.4e-4,0.0146 0,0.0215 v 0.002 0.002 c 0.004,0.008 0.004,0.0126 0.004,0.0215 v 0.0234 0.0215 0.0195 0.0254 0.0117 0.0312 c 0,0.008 9e-5,0.0118 0,0.0156 -2e-4,0.004 2.6e-4,0.01 0,0.0176 -3.7e-4,0.008 6.9e-4,0.004 0,0.0117 4.7e-4,9.9e-4 -8.5e-4,0.002 0,0.004 10e-4,0.004 0.003,0.008 0.004,0.0117 9.9e-4,0.004 -6.4e-4,0.0118 0,0.0156 9e-5,0.0116 5.9e-4,0.0217 0,0.0312 0.002,0.004 0.004,0.01 0.004,0.0137 9e-5,0.007 8e-4,0.0172 -0.002,0.0215 6.5e-4,9.9e-4 0.002,0.003 0.002,0.004 0.003,0.008 0.004,0.0159 0.004,0.0234 v 0.0176 0.0117 0.0195 c 0,0.0113 -2e-5,0.018 0,0.0293 10e-6,0.0113 10e-6,0.0208 0,0.0312 10e-5,0.0113 10e-4,0.0219 0,0.0332 h -0.002 c 0.002,0.008 0.008,0.0196 0.006,0.0273 -2.8e-4,0.004 -0.003,0.009 -0.002,0.0117 0.002,0.008 0.006,0.01 0.006,0.0176 3.2e-4,0.0113 0.001,0.018 0,0.0293 0.003,0.006 0.006,0.01 0.006,0.0156 8e-5,0.004 3.3e-4,0.0101 0,0.0176 4.4e-4,9.9e-4 -2.4e-4,0.005 0,0.006 0.003,0.0125 -0.002,0.0277 -0.004,0.0391 v 0.0176 c -0.005,0.0349 -0.0366,0.0306 -0.0352,-0.006 0,0.003 1.3e-4,0.006 0,0.008 -10e-4,-0.002 -0.008,-10e-4 -0.0195,0.004 0.008,7.6e-4 0.0107,0.009 0.0137,0.0117 l 0.002,0.002 h 0.002 0.004 v 0.004 h -0.004 c 0.003,0.005 0.004,0.0128 0.004,0.0293 -10e-4,0.0399 -0.0228,0.0584 -0.043,0.0566 3.1e-4,0.0196 0,0.0392 0,0.0586 7.6e-4,0.004 0.003,0.0117 0,0.0117 3.4e-4,0.046 -0.002,0.0316 -0.0898,0.0156 -0.0646,0.0144 -0.0683,0.0265 -0.0684,-0.0117 -0.003,0 9.8e-4,-0.01 0,-0.0117 -0.002,-0.005 -0.009,-0.01 -0.0117,-0.0117 -0.0247,-0.0462 -0.0358,-0.0974 -0.043,-0.14843 -0.0224,0.0145 -0.0463,0.0288 -0.0684,0.0449 -0.0161,-0.0151 -0.0383,-0.0202 -0.0488,-0.0391 -0.0212,-0.0351 -0.0297,-0.0763 -0.043,-0.11524 -0.0118,-0.0348 -0.0204,-0.07 -0.0273,-0.10547 v -0.002 -0.002 c -0.002,-0.003 -0.004,-0.009 -0.006,-0.0117 -0.006,-0.017 -0.0139,-0.0358 -0.0195,-0.0547 -0.002,-0.004 -1.2e-4,-0.0118 0,-0.0156 8.3e-4,-0.0302 0.002,-0.0615 0.002,-0.0918 -0.002,-0.0333 -0.006,-0.0675 -0.006,-0.10156 -2.3e-4,-0.0291 -0.001,-0.0551 0.002,-0.084 -7e-5,-0.005 1.1e-4,-0.0109 0,-0.0156 -0.004,-0.1704 -0.0255,-0.34115 -0.0176,-0.51172 0.002,-0.0438 0.006,-0.087 0.01,-0.13086 0.0196,-0.10507 0.0156,-0.2106 0.0117,-0.31641 0,-0.0163 0.006,-0.009 0.01,-0.0273 -2.9e-4,0 6.4e-4,10e-4 0,-0.008 -0.006,-0.0566 0.0109,-0.0964 0.0371,-0.11328 h -0.0156 c -0.0391,0.0114 -0.12384,-0.0135 0.0117,-0.0176 -4.6e-4,-0.004 -0.006,-0.009 -0.006,-0.0117 l 0.006,-0.002 c 0.003,0.005 0.0107,0.008 0.0117,0.0117 0.0154,-0.006 0.0312,-0.0104 0.0469,-0.0156 -6.9e-4,-0.004 -0.006,-0.0173 -0.01,-0.0527 -10e-4,-0.0113 -0.007,-0.0219 -0.008,-0.0332 -0.001,-0.02 0.01,-0.0289 0.0195,-0.0293 0.01,-3.5e-4 0.0204,0.008 0.0215,0.0274 3.7e-4,0.006 0.008,0.0129 0.008,0.0195 10e-4,7.1e-4 0.009,-1.7e-4 0.01,0.002 -0.008,-0.0585 -0.0136,-0.1171 -0.0176,-0.17578 -0.005,-0.0716 0.0264,-0.11378 0.0625,-0.12109 z m -0.0586,0.64062 v 0.002 z m 0.20899,0.26172 c -4.5e-4,0.003 -0.003,0.003 -0.004,0.006 9.9e-4,0.002 0.003,0.002 0.004,0.004 1e-5,-0.003 1e-5,-0.006 0,-0.01 z m 0.008,0.0937 c -4e-5,10e-4 0,0.003 0,0.004 9.4e-4,7.2e-4 0.005,0.003 0.004,0.002 -0.001,-0.002 -0.003,-0.004 -0.004,-0.006 z m -19.330081,0.41602 c 0.05192,-0.005 0.103189,0.006 0.148437,0.0371 0.232249,0.16046 0.381324,0.41712 0.572266,0.625 1.45e-4,0.0397 2.6e-5,0.0794 0,0.11914 0.02736,0.0759 0.05391,0.15223 0.08008,0.22851 0.0026,-0.005 0.0073,-0.007 0.01563,-0.004 0.07816,-0.0132 0.06444,-0.0182 0.06055,0.0137 -5.56e-4,0.004 -0.0015,0.009 -0.002,0.0137 -1.35e-4,10e-4 1.32e-4,0.003 0,0.004 -2.32e-4,0.003 3.39e-4,0.006 0,0.01 l -0.002,0.002 v 0.002 0.002 0.002 c 9.36e-4,0.0157 0.0027,0.0332 0.0039,0.0508 4.96e-4,0.007 0.0015,0.013 0.002,0.0195 h 0.002 c 6.1e-4,-0.005 0.0014,-0.009 0.002,-0.0137 -0.0013,-0.0109 -5.4e-4,-0.0218 0,-0.0332 0.02546,0.001 0.05107,3.7e-4 0.07617,0.004 -1.11e-4,-10e-4 6.4e-5,-0.003 0,-0.004 2.84e-4,0.002 0.0017,0.002 0.002,0.004 h -0.002 v 0.002 h 0.002 c 0.0011,0.002 4.03e-4,0.005 0,0.008 v 0.002 c 0.0026,0.0182 0.0069,0.0365 0.0098,0.0547 0.0011,0.008 0.0028,0.0159 0.0039,0.0234 0.01285,0.0779 0.02671,0.15148 0.03125,0.23047 0.0014,0.0261 0.0026,0.0517 0.0039,0.0781 -1e-5,0.0331 -1e-6,0.0665 0,0.0996 0.0057,4.8e-4 0.006,0.003 0.0078,0.0176 0.002,0.0639 -8.77e-4,0.12754 -0.0039,0.19141 -9.49e-4,0.0197 4.1e-4,0.0417 -0.002,0.0606 -2.84e-4,0.002 -0.0014,0.004 -0.002,0.006 -4.31e-4,0.002 -0.0014,0.006 -0.002,0.008 -9.58e-4,0.003 -0.0012,0.007 -0.002,0.01 6.49e-4,5e-4 0.0013,0.001 0.002,0.002 0.0014,10e-4 5.63e-4,0.003 0.002,0.004 0.0011,10e-4 0.0029,0.003 0.0039,0.004 0.07797,0.0759 0.05441,0.1141 0.01172,0.16406 v 0.01 0.12109 c 0,0.0121 -0.0026,0.0229 -0.0059,0.0312 3.03e-4,4.7e-4 -3e-4,10e-4 0,0.002 0.06306,0.0989 0.08107,0.19742 0.07422,0.38282 -0.04123,0.41038 0.184014,0.34534 -0.0957,0.46093 -0.02264,0.3235 -0.04655,0.44313 -0.0957,0.78711 v 0.002 c -0.175,1.22491 -1.413274,1.04921 -1.238282,-0.17578 0.02086,-0.14574 0.04511,-0.29123 0.0625,-0.4375 0.01247,-0.10356 0.02054,-0.20818 0.02734,-0.3125 0.0016,-0.0227 -0.02302,-0.0608 -0.002,-0.0684 0.02924,-0.0122 0.05647,-0.0232 0.08398,-0.0352 -0.0017,-0.0299 -0.0031,-0.0658 -0.002,-0.10547 -0.355599,-0.18425 -0.462947,-0.38305 -0.490234,-0.625 0,0 0,-0.002 0,-0.002 -0.07986,-0.085 -0.104595,-0.14484 -0.0078,-0.13672 7.85e-4,0.0471 0.0029,0.0926 0.0078,0.13672 0.08355,0.0885 0.226985,0.20376 0.359375,0.29883 -0.0014,-0.0183 -0.0022,-0.0397 -0.0039,-0.0625 -0.0207,-0.0513 -0.04896,-0.12101 -0.08789,-0.21094 -0.03699,-0.0392 -0.07286,-0.0786 -0.105469,-0.12109 -0.07673,-0.0257 -0.13262,-0.0399 -0.169922,-0.043 -0.0022,-0.14305 0.01051,-0.2997 0.0078,-0.47657 0,-0.0304 -0.0084,-0.37785 0.01172,-0.35937 7.89e-4,0.002 0.005,0.007 0.0059,0.01 -0.04017,-0.16868 -0.105575,-0.44601 -0.0059,-0.59179 0.02264,-0.033 0.364187,-0.49891 0.644531,-0.52344 z m 19.382811,0.30273 c 6.6e-4,0.003 0.002,0.005 0.002,0.008 -4.9e-4,-0.002 -7e-5,-0.005 0,-0.008 z m 0.002,0.0332 c -8e-5,0.008 0.002,0.0169 0.002,0.0254 v -0.0176 -0.008 z m -19.408202,0.93164 c -0.01859,0.002 -0.03576,0.004 -0.05078,0.006 0.0094,0.007 0.02015,0.0137 0.03125,0.0176 0.0066,-0.008 0.01278,-0.0159 0.01953,-0.0234 z m -0.222656,0.13282 c -0.0043,0.002 -0.0096,0.008 -0.01563,0.0156 -0.02509,0.0538 -0.05664,0.12778 -0.109375,0.23633 -0.05209,0.10721 -0.07855,0.18412 -0.08398,0.23633 0.06791,-0.0943 0.13037,-0.19422 0.193359,-0.29297 0.03766,-0.15348 0.03603,-0.20552 0.01563,-0.19531 z m 0.498047,1.46484 c -0.03396,0.0147 -0.06675,0.0291 -0.0957,0.041 0.0293,0.0344 0.06076,0.0691 0.0957,0.10547 0.04225,0.0453 0.225219,0.0661 0.181641,0.0234 -0.06718,-0.0659 -0.126641,-0.1217 -0.181641,-0.16992 z" />
    </clipPath>
    <clipPath
       clipPathUnits="userSpaceOnUse"
       id="clipPath172366">
      <path
         id="path172368"
         style="fill:#ff0000;fill-opacity:1;fill-rule:nonzero;stroke:none;stroke-width:1"
         d="m 83.328281,383.06312 v 59.2287 c 0.760477,0.25622 1.500529,0.60097 2.219708,0.95408 0.233603,-0.60243 0.584968,-1.46325 1.02466,-2.84278 0.01508,-0.0474 0.04698,-0.068 0.0901,-0.073 0.129313,-0.015 0.355278,0.11848 0.501376,0.14847 0.619014,0.12705 1.233952,0.27393 1.84732,0.42593 0.07477,0.0185 0.09944,0.0262 0.170374,0.0438 9.373538,0.39736 19.094721,1.28578 28.573861,2.24161 0.50847,0.0914 0.79927,0.14148 1.23398,0.21905 1.22308,-0.16102 2.73904,-0.31541 3.78957,-0.10222 1.02618,0.20825 2.0447,0.50385 3.00342,0.92488 0.41805,0.18359 0.78893,0.45491 1.15853,0.72773 0.39476,0.0966 0.96371,0.22997 1.57473,0.37482 1.02666,0.0871 1.83786,0.15789 3.59972,0.30424 1.35194,0.11229 2.3519,0.26908 3.25411,0.83239 0.41596,-0.4564 0.89935,-0.75757 1.44816,-0.72774 2.2822,0.12407 3.16712,0.74223 3.48046,2.56532 0.0356,0.20747 0.0596,0.3892 0.0828,0.56467 0.25752,0.10155 0.51245,0.20931 0.75936,0.33344 0.41701,0.20962 1.14848,0.36871 1.12447,0.83482 -0.12822,2.49396 -0.42034,3.51302 -1.18287,3.76036 0.004,0.009 0.009,0.0178 0.0125,0.0268 1.10994,2.45722 0.78577,5.34743 0.718,7.93935 -0.13776,1.89858 -0.22532,3.80108 -0.41376,5.6953 -0.15181,1.52594 -0.40261,3.04118 -0.60604,4.56111 -0.2125,1.58776 -0.42594,3.17554 -0.64011,4.76312 h 43.72969 v -93.72422 z m 2.842783,61.91571 c 0.06318,0.27659 0.124242,0.55337 0.187409,0.82996 0.121126,0.57525 0.219896,1.15301 0.304235,1.73293 0.149078,-0.32126 0.395529,-0.60573 0.839695,-0.83483 2.171867,-1.12023 1.244917,-0.20387 2.472825,-0.10465 0.253093,0.0204 0.505564,-0.0636 0.75938,-0.0706 0.411379,-0.0112 0.822472,0.0121 1.233976,0.017 0.559759,-0.006 1.11963,-0.009 1.679389,-0.0146 -0.88822,-0.18379 -1.775791,-0.37101 -2.660247,-0.57196 -0.865813,-0.19672 -1.720623,-0.43826 -2.57992,-0.66202 -0.111904,-0.007 -0.223921,-0.0127 -0.335875,-0.0195 -0.214737,-0.013 -0.432427,-0.0106 -0.644983,-0.0438 -0.170062,-0.0266 -0.338679,-0.0648 -0.506249,-0.10466 -0.352461,0.003 -0.665395,-0.0117 -0.749635,-0.15333 z m 33.229886,31.64543 c -0.40654,0.0622 -0.74477,0.1054 -1.12689,0.16307 h 1.33133 c -0.0678,-0.0546 -0.13687,-0.10821 -0.20444,-0.16307 z" />
    </clipPath>
  </defs>
  <g
     inkscape:label="Laag 1"
     inkscape:groupmode="layer"
     id="layer1"
     transform="translate(-3.302124,-76.018099)">
    <g
       id="g159666"
       transform="matrix(0.80247072,0,0,0.80247072,-12.69428,-44.456365)">
      <path
         id="path159672"
         style="fill:#0c48e8;stroke-width:0.800001"
         transform="matrix(0.26458333,0,0,0.26458333,8.6950791,48.779193)"
         d="m 144.71289,383.06836 c -0.97172,-0.0904 -1.87819,0.76271 -2.63672,2.53125 -1.82082,4.24528 -4.70715,17.06403 -4.16211,18.48437 0.27754,0.72329 1.25292,1.31446 2.16797,1.31446 2.06647,0 3.27774,-2.67319 5.68359,-12.54297 1.48553,-6.09419 1.61464,-7.55974 0.75,-8.60156 -0.61227,-0.73779 -1.2197,-1.13134 -1.80273,-1.18555 z m -39.51562,5.52148 c -0.65119,7.3e-4 -1.24759,0.38792 -1.84961,1.11328 -1.1231,1.35323 -0.61396,2.55382 5.39062,12.73243 3.20447,5.43201 3.94053,6.20598 5.70508,6 3.27561,-0.38215 2.81486,-2.82469 -2.1582,-11.43555 -3.39885,-5.88513 -5.42376,-8.41201 -7.08789,-8.41016 z m 71.21289,18.70899 c -1.23233,-0.0519 -3.18449,1.02742 -10.94141,5.56055 -5.30306,3.09906 -7,4.49986 -7,5.78124 0,0.93034 0.23987,1.93132 0.5332,2.22461 1.04353,1.04353 2.99938,0.49755 7.9375,-2.21679 9.58409,-5.26806 11.5293,-6.74765 11.5293,-8.77344 0,-1.04738 -0.56594,-2.1214 -1.25781,-2.38672 -0.27021,-0.10369 -0.5164,-0.17748 -0.80078,-0.18945 z m -12.17188,34.99219 c -1.38563,0.0147 -2.02015,0.42947 -2.32226,1.21679 -0.95411,2.48636 1.10543,3.85914 9.02929,6.01563 9.96316,2.71151 12.0473,2.80604 12.75196,0.58594 0.81,-2.55213 -0.8213,-3.55351 -9.5,-5.8379 -5.15421,-1.35667 -8.17746,-1.99931 -9.95899,-1.98046 z m -58.27734,17.78515 c -0.12126,-0.0184 -0.20452,0.273 -0.22852,0.85547 -0.0347,0.84325 0.15407,1.31648 0.41992,1.05078 0.26582,-0.26581 0.29358,-0.95569 0.0625,-1.5332 -0.0958,-0.23933 -0.18115,-0.36203 -0.2539,-0.37305 z m -22.400393,1.59961 c -0.121257,-0.0184 -0.204516,0.27495 -0.228516,0.85742 -0.03474,0.84329 0.15407,1.31453 0.419922,1.04883 0.265852,-0.26585 0.29358,-0.95569 0.0625,-1.5332 -0.09577,-0.23932 -0.181152,-0.36203 -0.253906,-0.37305 z m 4,0 c -0.121257,-0.0184 -0.204516,0.27495 -0.228516,0.85742 -0.03474,0.84329 0.15407,1.31453 0.419922,1.04883 0.265814,-0.26585 0.29358,-0.95569 0.0625,-1.5332 -0.09577,-0.23932 -0.181152,-0.36203 -0.253906,-0.37305 z m 15.199223,10.40039 c -0.12126,-0.0184 -0.20452,0.273 -0.22852,0.85547 -0.0347,0.84325 0.15407,1.31648 0.41992,1.05078 0.26585,-0.26581 0.29572,-0.95573 0.0644,-1.5332 -0.0958,-0.23932 -0.1831,-0.36203 -0.25585,-0.37305 z m -18.400395,2.40039 c -0.121256,-0.0184 -0.202562,0.273 -0.226563,0.85547 -0.03473,0.84325 0.15407,1.31648 0.419922,1.05078 0.265852,-0.26581 0.293581,-0.95573 0.0625,-1.5332 -0.09577,-0.23932 -0.183105,-0.36203 -0.255859,-0.37305 z m 22.318355,2.29492 c 7.2e-4,0.003 0.001,0.0108 0.002,0.0137 -2e-5,-0.005 0,-0.009 0,-0.0137 -5.6e-4,7e-5 -0.001,-3e-5 -0.002,0 z"
         clip-path="url(#clipPath172366)" />
      <path
         id="path159670"
         style="fill:#ed0f0f;stroke-width:0.800001"
         transform="matrix(0.26458333,0,0,0.26458333,8.6943171,48.777468)"
         d="m 84.449219,404.69727 c -3.422772,-0.0128 -6.491634,0.2306 -8.486328,0.69335 -19.209744,4.45686 -33.434158,22.31759 -33.482422,42.04102 -0.03175,12.97391 7.523216,27.56646 18.003906,34.77734 4.165595,2.86602 6.463914,3.05955 7.242187,0.60743 0.460169,-1.44987 -0.01441,-2.23582 -2.544921,-4.20118 -4.429183,-3.44001 -8.880836,-8.07705 -11.021485,-11.48437 -14.805014,-23.56554 0.907587,-54.56961 28.738282,-56.70508 11.096191,-0.85138 21.154292,3.0868 29.154292,11.41797 5.44183,5.6671 8.32499,11.20721 10,19.21289 0.62066,2.9664 1.55905,5.66053 2.08594,5.98633 0.52688,0.32564 2.97606,-0.11994 5.44336,-0.98828 14.39759,-5.06699 28.4129,5.36567 27.07227,20.15039 -0.51379,5.66615 -3.19452,10.74389 -7.34571,13.91015 -2.89631,2.20914 -3.86058,5.53816 -1.83984,6.35352 2.02442,0.81687 2.85459,0.46031 6.60156,-2.83789 5.49507,-4.83696 8.39764,-11.30993 8.39844,-18.73047 7.3e-4,-6.54478 -1.33734,-10.95955 -4.76953,-15.74023 -2.2434,-3.12484 -2.3509,-3.5867 -1.5293,-6.56055 1.3157,-4.76228 0.48893,-13.74155 -1.64844,-17.91211 -6.64093,-12.95815 -22.20318,-18.15958 -34.90039,-11.66602 l -4.69921,2.40235 -4.97461,-3.33594 c -7.42419,-4.97843 -12.979319,-6.82038 -21.984379,-7.29101 -1.193091,-0.0624 -2.372748,-0.0954 -3.513672,-0.0996 z m 46.794921,11.29882 c 10.38728,-0.22508 20.15584,9.30718 19.96875,20.14453 -0.0971,5.62542 -0.5249,5.97673 -5.14453,4.21876 -3.20586,-1.22 -5.38882,-1.44759 -10.99609,-1.14258 l -6.9961,0.38086 -0.88476,-3.28516 c -0.9798,-3.63866 -4.08925,-10.1234 -6.47657,-13.50781 -0.85141,-1.20699 -1.31892,-2.56203 -1.04101,-3.01172 0.75361,-1.21935 5.4602,-3.01536 9.48633,-3.61914 0.69521,-0.10426 1.3915,-0.16273 2.08398,-0.17774 z"
         clip-path="url(#clipPath172190)" />
      <path
         id="path159668"
         style="fill:#0f0f0f;stroke-width:0.800001"
         transform="matrix(0.26458333,0,0,0.26458333,8.6943171,48.777468)"
         d="m 85.166016,455.79883 c -2.082354,0 -2.099454,0.0455 -1.628907,4.59961 0.261411,2.52998 0.714609,9.27998 1.00586,15 0.29125,5.72001 0.684852,10.67004 0.875,11 0.19014,0.33014 1.194077,0.59961 2.230469,0.59961 1.588638,0 2.616912,-1.40392 6.552734,-8.94922 2.567641,-4.92235 5.375274,-10.41158 6.240238,-12.19922 1.88279,-3.89125 1.86152,-3.97159 2.65234,10.34961 l 0.57422,10.40039 2.17187,0.25 c 2.07427,0.23921 2.50892,-0.42774 9.79883,-14.99219 4.19606,-8.38329 7.63086,-15.42588 7.63086,-15.65039 0,-0.22431 -0.82657,-0.4082 -1.83594,-0.4082 -1.57128,0 -2.70942,1.77363 -7.91406,12.33008 -6.69366,13.57663 -7.05078,13.7012 -7.05078,2.48632 0,-2.74046 -0.23249,-7.21394 -0.51758,-9.9414 -0.49001,-4.68715 -0.6268,-4.94546 -2.49219,-4.7168 -1.6599,0.20338 -3.00716,2.21116 -8.482418,12.64258 l -6.507812,12.39844 -0.492188,-9.59961 c -0.270346,-5.28 -0.539968,-10.94962 -0.599609,-12.59961 -0.09685,-2.67836 -0.333038,-3 -2.210937,-3 z m 52.160154,0.11328 c -1.92568,-0.0304 -2.75381,1.39358 -10.35742,14.91016 -4.6748,8.31016 -8.5,15.3489 -8.5,15.64257 0,0.29348 0.86583,0.53321 1.92383,0.53321 1.49734,0 2.47333,-0.97351 4.40625,-4.39844 l 2.48437,-4.40039 h 6.33203 6.33204 l 0.66601,4.19922 c 0.5545,3.49765 0.96596,4.24424 2.46094,4.45703 2.32339,0.33086 2.30045,-0.5396 -0.45508,-17.45703 l -2.15039,-13.19922 -2.5,-0.24414 c -0.23139,-0.0225 -0.44337,-0.0398 -0.64258,-0.043 z m -60.212889,0.043 c -0.917635,0.0325 -1.918541,0.44221 -2.15039,1.19726 -0.601248,1.9581 -6.09375,28.20389 -6.09375,29.11914 0,0.40026 0.840667,0.72657 1.86914,0.72657 1.78142,0 2.012676,-0.69084 4.886719,-14.59961 1.659281,-8.03002 3.068611,-14.95132 3.130859,-15.38086 0.108785,-0.75062 -0.724942,-1.09503 -1.642578,-1.0625 z m 60.320309,3.72265 0.54493,4.66016 c 0.29908,2.56331 0.75787,6.01013 1.01953,7.66016 l 0.47461,3 h -4.90235 c -2.69624,0 -4.89264,-0.26966 -4.88281,-0.59961 0.01,-0.33003 1.75722,-3.77685 3.88281,-7.66016 z"
         clip-path="url(#clipPath172200)" />
    </g>
  </g>
</svg>
